<?xml version="1.0" encoding="UTF-8" standalone="no"?>
<!DOCTYPE svg PUBLIC "-//W3C//DTD SVG 1.1//EN" "http://www.w3.org/Graphics/SVG/1.1/DTD/svg11.dtd">
<svg xmlns="http://www.w3.org/2000/svg" version="1.1" viewBox="0.00 0.00 1440.00 1440.00">
<g stroke-width="2.00" fill="none" stroke-linecap="butt">
<path stroke="#f7adaa" vector-effect="non-scaling-stroke" d="
  M 1062.82 469.43
  C 1067.26 465.50 1074.78 457.52 1074.86 451.27
  C 1074.96 444.27 1064.24 439.90 1058.47 438.27
  Q 1053.17 436.77 1044.35 436.46
  Q 1031.96 436.04 1019.47 436.46
  Q 1018.81 436.49 1019.07 435.88
  C 1021.72 429.97 1025.19 422.53 1024.24 415.94
  C 1022.56 404.23 1002.81 407.52 994.50 408.83
  Q 963.84 413.66 941.31 418.00
  C 894.67 426.98 851.67 434.86 825.00 439.54
  C 735.00 455.34 643.97 454.87 553.63 441.75
  C 500.97 434.11 448.68 415.44 400.08 394.21
  C 395.34 392.14 391.31 391.62 388.90 396.83
  C 385.61 403.95 393.32 408.88 398.62 411.47
  Q 443.77 433.50 492.77 444.65
  Q 528.40 452.77 574.04 458.56
  Q 610.07 463.14 632.50 464.74
  C 692.99 469.08 755.37 464.21 817.85 456.31
  Q 827.74 455.06 837.61 453.26
  C 876.93 446.06 915.93 437.31 954.85 428.27
  C 967.42 425.35 978.17 423.30 989.74 421.98
  C 993.46 421.55 999.99 421.14 1003.49 423.21
  A 1.64 1.63 42.8 0 1 1003.60 425.95
  C 985.85 438.44 965.60 441.99 945.35 448.11
  Q 938.49 450.18 934.37 454.56
  C 931.02 458.12 930.23 463.53 935.99 465.26
  C 943.15 467.41 951.98 465.33 960.33 462.81
  C 980.63 456.69 1001.39 452.46 1022.37 449.55
  C 1028.44 448.71 1047.12 446.93 1050.83 451.56
  A 1.06 1.04 -58.4 0 1 1051.04 452.47
  C 1049.82 457.64 1040.96 459.88 1035.96 461.21
  Q 1009.13 468.32 968.31 481.46
  Q 962.82 483.23 961.04 485.82
  C 954.50 495.38 971.34 496.05 976.00 495.51
  Q 1011.86 491.28 1047.75 487.37
  C 1053.81 486.71 1081.10 484.97 1084.29 490.88
  A 1.14 1.13 -48.9 0 1 1084.35 491.81
  C 1082.30 497.21 1070.55 500.34 1065.48 501.08
  Q 1031.43 506.03 997.27 510.14
  Q 985.66 511.54 974.00 512.38
  Q 969.74 512.68 967.92 514.41
  C 964.23 517.92 965.72 521.94 969.88 523.78
  C 973.94 525.58 980.09 525.38 984.50 525.47
  Q 1023.62 526.23 1062.74 527.39
  C 1067.13 527.52 1074.88 528.36 1077.50 532.24
  Q 1077.80 532.68 1077.72 533.20
  C 1075.89 545.67 1017.73 544.66 1007.75 544.72
  C 1002.20 544.75 993.99 544.11 987.76 544.64
  C 984.03 544.95 976.46 548.00 975.75 552.45
  C 974.66 559.21 987.07 561.58 991.79 562.42
  C 1006.51 565.04 1020.99 568.65 1035.68 571.47
  C 1039.25 572.16 1041.67 573.12 1044.21 575.32
  A 2.34 2.34 0.0 0 1 1044.37 578.71
  C 1040.54 582.71 1030.24 583.77 1024.98 584.29
  Q 968.56 589.84 911.98 593.47
  Q 887.77 595.03 872.75 594.50
  Q 824.91 592.83 766.44 587.24
  Q 756.32 586.27 746.56 585.14
  Q 631.83 571.88 524.50 546.48
  Q 490.63 538.46 383.60 512.13
  C 378.81 510.95 373.11 509.94 369.00 510.51
  C 362.84 511.35 359.47 515.61 362.34 521.70
  C 364.22 525.69 369.14 527.95 373.79 529.40
  Q 391.07 534.77 408.78 538.49
  C 500.92 557.87 592.24 581.22 685.57 594.41
  C 708.69 597.68 731.11 599.81 757.00 602.48
  Q 882.88 615.50 1007.91 603.14
  C 1021.88 601.76 1033.97 599.07 1046.53 594.80
  Q 1052.64 592.73 1057.19 589.94
  C 1065.88 584.62 1066.01 573.55 1059.23 566.63
  C 1055.69 563.02 1048.58 560.24 1043.40 557.90
  A 0.36 0.36 0.0 0 1 1043.49 557.21
  Q 1053.47 555.50 1063.75 554.49
  Q 1077.36 553.15 1088.29 545.04
  C 1094.90 540.14 1099.26 532.60 1092.98 525.14
  C 1089.46 520.97 1084.17 518.32 1080.30 514.49
  A 1.22 1.21 54.7 0 1 1080.63 512.53
  Q 1089.08 508.49 1097.50 503.50
  C 1106.59 498.12 1109.69 487.54 1100.71 480.01
  Q 1097.75 477.51 1094.93 476.50
  Q 1081.12 471.54 1063.05 470.11
  Q 1062.14 470.04 1062.82 469.43"
/>
<path stroke="#f7adaa" vector-effect="non-scaling-stroke" d="
  M 441.05 690.27
  Q 446.96 723.09 452.38 756.00
  Q 453.13 760.53 454.43 762.19
  C 457.94 766.67 466.12 763.83 467.61 758.87
  Q 468.27 756.71 467.43 751.63
  Q 453.10 664.13 434.77 573.49
  C 434.21 570.69 433.28 568.61 430.47 567.45
  C 426.99 566.01 421.80 564.87 418.94 567.76
  Q 417.65 569.06 416.50 573.16
  Q 408.97 600.14 395.51 631.98
  Q 371.42 688.94 347.48 745.94
  C 346.28 748.78 344.81 751.46 346.28 754.32
  C 348.59 758.78 355.37 759.58 358.98 756.25
  Q 360.68 754.68 362.60 750.13
  Q 375.57 719.45 388.35 688.95
  A 1.27 1.25 12.0 0 1 389.54 688.19
  L 440.45 689.75
  Q 440.96 689.77 441.05 690.27"
/>
<path stroke="#f7adaa" vector-effect="non-scaling-stroke" d="
  M 490.56 617.05
  C 499.46 635.24 508.40 653.36 516.73 671.84
  Q 519.77 678.57 523.53 681.49
  C 535.13 690.45 539.87 675.88 542.13 667.62
  Q 546.97 649.98 552.39 632.84
  A 0.35 0.34 50.7 0 1 553.06 632.91
  Q 562.00 705.96 572.20 778.51
  C 572.96 783.87 576.00 786.59 581.50 785.20
  Q 588.62 783.39 587.48 775.15
  Q 576.88 698.57 571.14 652.16
  C 568.79 633.15 565.95 614.34 563.17 595.48
  C 562.75 592.62 561.32 589.82 558.58 589.16
  Q 552.20 587.61 549.26 591.87
  Q 548.46 593.04 546.23 599.86
  Q 536.51 629.63 528.56 660.00
  Q 528.37 660.75 528.07 660.04
  C 525.41 653.66 522.80 647.13 519.80 641.13
  Q 503.20 607.98 487.84 574.24
  C 485.69 569.50 479.70 569.64 476.22 572.42
  C 473.03 574.97 473.28 577.91 473.35 581.75
  C 474.40 637.23 478.04 678.86 483.47 753.05
  Q 483.96 759.71 484.17 760.39
  C 485.86 765.81 494.81 767.41 498.08 762.68
  C 500.16 759.66 499.12 754.68 498.86 751.01
  Q 494.79 694.01 491.04 637.00
  Q 490.39 627.09 490.06 617.17
  Q 490.01 615.93 490.56 617.05"
/>
<path stroke="#f7adaa" vector-effect="non-scaling-stroke" d="
  M 672.08 782.31
  C 678.53 767.87 680.23 754.39 681.52 737.27
  Q 683.47 711.33 681.90 689.25
  Q 679.86 660.46 673.87 620.65
  C 673.49 618.08 672.40 613.02 670.70 611.27
  C 666.91 607.36 659.29 609.32 657.69 614.42
  Q 657.07 616.41 657.94 621.07
  Q 668.58 677.40 665.55 734.74
  Q 664.94 746.44 661.82 763.21
  C 660.03 772.84 655.02 786.79 643.01 785.88
  C 634.63 785.26 627.91 776.46 625.10 769.05
  Q 620.14 755.97 616.78 742.35
  C 605.74 697.55 603.81 651.20 603.69 605.25
  Q 603.67 597.59 596.52 596.81
  C 590.15 596.12 587.91 600.31 587.97 606.15
  C 588.41 646.79 590.27 690.42 597.94 731.02
  C 601.64 750.62 606.98 774.19 619.63 789.60
  C 635.16 808.51 662.25 804.31 672.08 782.31"
/>
<path stroke="#f7adaa" vector-effect="non-scaling-stroke" d="
  M 748.65 694.01
  A 0.22 0.22 0.0 0 1 748.25 694.08
  Q 726.21 656.79 704.19 619.39
  C 701.15 614.22 698.92 609.82 692.78 611.72
  Q 686.86 613.55 687.01 618.76
  Q 687.09 621.45 689.85 626.11
  Q 716.38 671.01 742.90 715.92
  C 743.40 716.76 743.40 717.60 743.18 718.50
  Q 734.24 753.80 723.46 788.59
  C 721.66 794.39 721.27 799.14 728.02 800.97
  C 735.01 802.85 736.93 798.33 738.56 792.92
  C 754.52 740.10 769.28 687.98 772.89 633.62
  Q 773.20 629.00 772.11 627.02
  C 769.46 622.17 760.97 622.91 758.48 627.64
  Q 757.60 629.30 757.21 634.51
  Q 754.95 664.60 748.65 694.01"
/>
<path stroke="#f7adaa" vector-effect="non-scaling-stroke" d="
  M 1026.3689 626.0349
  A 7.26 7.26 0.0 0 0 1018.5617 619.3669
  L 1017.4451 619.4548
  A 7.26 7.26 0.0 0 0 1010.7771 627.2620
  L 1020.3711 749.1651
  A 7.26 7.26 0.0 0 0 1028.1783 755.8331
  L 1029.2949 755.7452
  A 7.26 7.26 0.0 0 0 1035.9629 747.9380
  L 1026.3689 626.0349"
/>
<path stroke="#f7adaa" vector-effect="non-scaling-stroke" d="
  M 919.75 665.73
  C 932.15 684.73 943.07 704.47 955.02 723.71
  Q 967.63 744.02 979.27 764.92
  C 982.93 771.48 993.55 770.63 994.16 762.48
  Q 994.59 756.62 994.55 750.75
  Q 994.12 689.48 991.54 628.25
  Q 991.27 621.77 985.24 620.58
  C 978.98 619.36 975.81 623.31 975.99 629.19
  C 977.05 663.21 978.40 697.16 978.65 731.23
  Q 978.66 732.08 978.20 731.36
  Q 968.22 715.77 961.17 703.58
  Q 938.70 664.69 915.37 630.15
  C 910.98 623.65 899.54 625.67 900.42 634.76
  Q 907.43 707.25 914.22 779.77
  Q 914.70 784.85 915.65 786.54
  C 918.36 791.32 927.65 792.31 929.73 786.54
  Q 930.42 784.60 929.92 779.41
  Q 924.41 722.66 919.34 665.87
  Q 919.26 664.97 919.75 665.73"
/>
<path stroke="#f7adaa" vector-effect="non-scaling-stroke" d="
  M 837.02 794.59
  C 861.86 800.34 874.24 777.70 879.41 757.49
  C 889.78 716.95 889.78 675.21 883.77 633.86
  Q 883.15 629.56 881.87 627.97
  C 878.39 623.62 870.55 626.95 868.84 631.57
  Q 867.98 633.91 868.72 638.97
  Q 874.75 680.09 870.42 721.49
  C 868.80 736.96 866.29 752.51 859.61 766.88
  C 856.59 773.36 849.83 780.96 841.96 779.53
  C 825.41 776.53 818.02 755.61 814.73 740.74
  C 806.81 704.87 802.18 671.70 804.31 636.24
  C 804.86 627.08 793.02 626.84 789.95 632.64
  Q 788.71 634.97 788.45 641.07
  Q 786.37 688.54 797.53 734.54
  C 802.74 756.02 811.59 788.69 837.02 794.59"
/>
<path stroke="#f7adaa" vector-effect="non-scaling-stroke" d="
  M 420.45 809.01
  Q 408.23 808.99 396.00 809.00
  C 385.30 809.01 356.15 814.64 368.33 832.15
  Q 372.13 837.62 376.99 841.75
  A 0.63 0.63 0.0 0 1 376.62 842.86
  Q 360.30 843.96 345.04 849.53
  Q 337.19 852.40 334.71 858.70
  C 329.22 872.65 350.20 880.63 359.23 885.10
  A 1.45 1.45 0.0 0 1 359.53 887.51
  Q 354.42 891.84 349.09 896.09
  C 339.90 903.42 344.68 912.83 352.45 918.33
  C 365.94 927.87 380.88 927.19 396.41 929.89
  A 0.34 0.34 0.0 0 1 396.50 930.53
  C 391.33 932.97 384.38 935.75 380.77 939.39
  C 375.45 944.76 374.19 954.38 379.48 959.99
  Q 382.08 962.75 389.44 965.72
  Q 407.93 973.16 424.75 975.02
  Q 545.95 988.43 672.59 976.17
  Q 691.59 974.33 692.42 974.25
  Q 783.30 965.51 872.50 945.96
  Q 957.26 927.39 1042.00 908.75
  Q 1055.33 905.82 1068.24 901.41
  Q 1072.58 899.93 1075.20 897.70
  C 1080.26 893.39 1080.18 884.13 1071.99 883.34
  Q 1064.76 882.64 1057.73 884.37
  Q 995.75 899.66 933.75 914.81
  C 824.36 941.54 710.65 959.35 600.48 965.52
  C 580.66 966.63 558.48 967.87 540.74 967.02
  Q 496.39 964.91 428.30 958.40
  C 416.40 957.26 410.24 956.81 401.30 954.38
  C 389.26 951.11 397.82 945.26 404.00 944.16
  C 419.26 941.43 434.16 937.42 449.45 934.93
  C 453.53 934.27 465.99 931.12 464.34 925.02
  C 462.92 919.74 454.40 917.06 449.75 917.14
  Q 415.70 917.68 388.00 915.81
  C 380.70 915.31 366.14 912.99 362.45 906.56
  Q 362.20 906.13 362.34 905.66
  C 364.05 899.82 378.37 899.98 384.47 899.83
  Q 422.86 898.90 461.25 898.08
  Q 465.75 897.98 470.00 896.53
  C 474.42 895.03 475.90 890.15 472.03 887.10
  C 469.70 885.28 467.12 885.32 464.30 885.02
  Q 419.48 880.24 374.86 873.88
  C 368.68 872.99 359.93 870.06 356.15 865.67
  A 2.07 2.06 51.2 0 1 356.47 862.68
  C 357.60 861.82 359.46 860.96 360.98 860.71
  Q 376.41 858.16 392.50 859.96
  Q 433.41 864.54 459.74 867.79
  C 464.46 868.37 475.56 869.24 479.13 865.38
  C 483.66 860.49 475.79 855.19 472.02 853.97
  Q 443.10 844.57 400.21 832.76
  C 396.25 831.67 390.33 829.69 389.15 825.46
  Q 389.02 825.01 389.21 824.59
  C 391.40 819.69 412.00 821.32 417.38 822.10
  Q 442.92 825.79 467.95 832.02
  C 479.38 834.87 491.85 840.83 503.73 837.93
  C 509.09 836.62 509.48 831.94 506.39 828.12
  Q 502.34 823.14 495.00 820.90
  Q 479.31 816.11 463.54 811.65
  Q 448.94 807.52 436.44 798.56
  A 1.59 1.59 0.0 0 1 436.36 796.05
  C 442.73 790.81 477.67 799.10 486.34 801.15
  Q 533.12 812.23 580.21 821.93
  Q 603.98 826.83 632.75 830.20
  C 695.30 837.52 755.56 842.18 816.95 836.60
  Q 857.87 832.87 898.50 826.79
  C 950.40 819.03 997.31 805.82 1042.47 783.39
  C 1047.97 780.66 1056.15 774.82 1050.20 767.72
  C 1047.84 764.90 1044.38 764.89 1041.00 766.39
  Q 986.22 790.71 932.77 804.98
  C 905.73 812.20 877.29 815.95 848.31 819.10
  Q 757.52 828.97 666.69 819.62
  C 643.24 817.21 619.68 813.20 596.50 808.93
  Q 537.03 797.97 477.61 786.73
  C 465.21 784.38 453.23 782.59 441.03 780.81
  C 434.65 779.87 422.93 778.75 418.26 783.79
  C 412.37 790.15 418.19 801.99 420.83 808.44
  Q 421.07 809.01 420.45 809.01"
/>
<path stroke="#f7adaa" vector-effect="non-scaling-stroke" d="
  M 1013.53 979.11
  A 1.13 1.13 0.0 0 1 1012.19 978.27
  L 1011.31 974.62
  A 1.13 1.13 0.0 0 1 1012.18 973.25
  L 1018.98 971.84
  A 1.13 1.13 0.0 0 0 1019.85 970.47
  L 1019.25 967.90
  A 1.13 1.13 0.0 0 0 1017.90 967.05
  L 1011.16 968.58
  A 1.13 1.13 0.0 0 1 1009.81 967.72
  L 1009.08 964.37
  A 1.13 1.13 0.0 0 1 1009.95 963.02
  L 1017.56 961.41
  A 1.13 1.13 0.0 0 0 1018.43 960.06
  L 1017.87 957.45
  A 1.13 1.13 0.0 0 0 1016.52 956.58
  L 1003.87 959.44
  A 1.13 1.13 0.0 0 0 1003.02 960.79
  L 1008.10 984.04
  A 1.13 1.13 0.0 0 0 1009.44 984.90
  L 1022.63 982.04
  A 1.13 1.13 0.0 0 0 1023.47 980.60
  L 1022.73 978.19
  A 1.13 1.13 0.0 0 0 1021.41 977.42
  L 1013.53 979.11"
/>
<path stroke="#f7adaa" vector-effect="non-scaling-stroke" d="
  M 991.33 989.14
  Q 995.54 987.63 997.82 983.62
  A 0.67 0.66 -62.1 0 0 997.54 982.70
  L 994.49 981.13
  Q 993.91 980.83 993.47 981.31
  Q 986.96 988.39 980.91 982.61
  C 974.42 976.40 980.49 965.00 989.41 968.52
  Q 991.53 969.35 993.01 967.63
  L 993.58 966.97
  Q 995.01 965.32 993.00 964.47
  Q 984.54 960.91 978.70 965.16
  C 966.15 974.31 976.02 994.67 991.33 989.14"
/>
<path stroke="#f7adaa" vector-effect="non-scaling-stroke" d="
  M 957.49 991.01
  A 1.15 1.15 0.0 0 1 956.13 990.15
  L 955.30 986.56
  A 1.15 1.15 0.0 0 1 956.17 985.18
  L 962.96 983.67
  A 1.15 1.15 0.0 0 0 963.84 982.32
  L 963.34 979.84
  A 1.15 1.15 0.0 0 0 961.97 978.94
  L 955.21 980.42
  A 1.15 1.15 0.0 0 1 953.83 979.50
  L 953.20 976.09
  A 1.15 1.15 0.0 0 1 954.13 974.75
  L 961.69 973.39
  A 1.15 1.15 0.0 0 0 962.61 972.02
  L 962.08 969.48
  A 1.15 1.15 0.0 0 0 960.73 968.58
  L 948.06 971.10
  A 1.15 1.15 0.0 0 0 947.15 972.46
  L 951.99 995.89
  A 1.15 1.15 0.0 0 0 953.35 996.79
  L 966.28 994.11
  A 1.15 1.15 0.0 0 0 967.17 992.72
  L 966.58 990.25
  A 1.15 1.15 0.0 0 0 965.22 989.39
  L 957.49 991.01"
/>
<path stroke="#f7adaa" vector-effect="non-scaling-stroke" d="
  M 927.17 992.18
  L 930.05 991.96
  Q 930.68 991.91 931.10 992.39
  L 936.66 998.79
  Q 937.83 1000.14 939.55 999.64
  L 941.75 998.99
  Q 943.38 998.51 942.21 997.29
  L 935.62 990.39
  Q 935.29 990.04 935.60 989.66
  C 941.50 982.61 936.73 973.98 927.73 975.29
  Q 923.30 975.93 918.63 977.07
  A 0.63 0.62 -12.4 0 0 918.16 977.80
  L 922.82 1001.19
  Q 923.12 1002.72 924.67 1002.51
  L 926.50 1002.27
  Q 928.27 1002.03 927.92 1000.29
  L 926.49 993.09
  A 0.76 0.76 0.0 0 1 927.17 992.18"
/>
<path stroke="#f7adaa" vector-effect="non-scaling-stroke" d="
  M 892.96 994.31
  C 892.37 988.41 898.31 983.34 904.10 985.93
  Q 906.18 986.86 907.76 985.21
  L 908.09 984.87
  Q 909.93 982.95 907.50 981.87
  C 888.49 973.42 879.73 1001.35 897.12 1006.80
  Q 905.20 1009.34 911.77 1002.46
  A 1.73 1.73 0.0 0 0 911.59 999.90
  L 911.21 999.61
  Q 909.26 998.08 907.34 999.65
  C 900.80 1005.03 893.75 1002.09 892.96 994.31"
/>
<path stroke="#f7adaa" vector-effect="non-scaling-stroke" d="
  M 822.45 1006.40
  A 1.08 1.08 0.0 0 1 821.19 1005.53
  L 820.55 1002.07
  A 1.08 1.08 0.0 0 1 821.42 1000.81
  L 829.19 999.39
  A 1.08 1.08 0.0 0 0 830.04 998.06
  L 829.40 995.51
  A 1.08 1.08 0.0 0 0 828.17 994.71
  L 815.42 997.00
  A 1.08 1.08 0.0 0 0 814.55 998.26
  L 819.01 1021.90
  A 1.08 1.08 0.0 0 0 820.27 1022.76
  L 833.58 1020.35
  A 1.08 1.08 0.0 0 0 834.43 1019.02
  L 833.77 1016.43
  A 1.08 1.08 0.0 0 0 832.54 1015.64
  L 824.51 1017.01
  A 1.08 1.08 0.0 0 1 823.28 1016.16
  L 822.50 1012.49
  A 1.08 1.08 0.0 0 1 823.35 1011.21
  L 830.24 1009.85
  A 1.08 1.08 0.0 0 0 831.09 1008.59
  L 830.59 1006.00
  A 1.08 1.08 0.0 0 0 829.34 1005.14
  L 822.45 1006.40"
/>
<path stroke="#f7adaa" vector-effect="non-scaling-stroke" d="
  M 866.21 1001.81
  A 5.07 5.07 0.0 0 0 861.14 996.74
  A 5.07 5.07 0.0 0 0 856.07 1001.81
  A 5.07 5.07 0.0 0 0 861.14 1006.88
  A 5.07 5.07 0.0 0 0 866.21 1001.81"
/>
<path stroke="#f7adaa" vector-effect="non-scaling-stroke" d="
  M 799.67 1006.11
  A 1.12 1.12 0.0 0 1 800.56 1004.80
  L 804.58 1004.04
  A 1.12 1.12 0.0 0 0 805.48 1002.78
  L 805.12 1000.24
  A 1.12 1.12 0.0 0 0 803.80 999.29
  L 788.59 1002.20
  A 1.12 1.12 0.0 0 0 787.70 1003.49
  L 788.10 1005.92
  A 1.12 1.12 0.0 0 0 789.41 1006.84
  L 793.42 1006.13
  A 1.12 1.12 0.0 0 1 794.72 1007.03
  L 798.05 1025.69
  A 1.12 1.12 0.0 0 0 799.31 1026.60
  L 802.28 1026.19
  A 1.12 1.12 0.0 0 0 803.23 1024.87
  L 799.67 1006.11"
/>
<path stroke="#f7adaa" vector-effect="non-scaling-stroke" d="
  M 764.03 1016.07
  Q 769.70 1021.73 774.81 1027.91
  C 776.73 1030.24 778.66 1031.24 781.34 1029.46
  Q 781.73 1029.20 781.67 1028.73
  L 778.32 1005.49
  A 1.61 1.61 0.0 0 0 776.49 1004.13
  L 774.55 1004.41
  Q 773.01 1004.64 773.23 1006.18
  L 775.23 1020.74
  Q 775.34 1021.50 774.83 1020.93
  Q 769.10 1014.53 763.54 1007.97
  Q 761.76 1005.87 758.21 1006.81
  A 1.37 1.37 0.0 0 0 757.20 1008.33
  L 760.56 1031.33
  Q 760.79 1032.88 762.33 1032.65
  L 764.25 1032.36
  Q 765.86 1032.13 765.63 1030.51
  L 763.62 1016.27
  Q 763.52 1015.57 764.03 1016.07"
/>
<path stroke="#f7adaa" vector-effect="non-scaling-stroke" d="
  M 739.57 1020.02
  A 1.06 1.06 0.0 0 1 738.39 1019.11
  L 737.91 1015.53
  A 1.06 1.06 0.0 0 1 738.84 1014.34
  L 746.65 1013.44
  A 1.06 1.06 0.0 0 0 747.58 1012.28
  L 747.29 1009.50
  A 1.06 1.06 0.0 0 0 746.10 1008.56
  L 733.17 1010.33
  A 1.06 1.06 0.0 0 0 732.26 1011.51
  L 735.28 1035.29
  A 1.06 1.06 0.0 0 0 736.46 1036.20
  L 749.83 1034.59
  A 1.06 1.06 0.0 0 0 750.76 1033.44
  L 750.50 1030.72
  A 1.06 1.06 0.0 0 0 749.33 1029.77
  L 740.91 1030.68
  A 1.06 1.06 0.0 0 1 739.74 1029.73
  L 739.39 1025.98
  A 1.06 1.06 0.0 0 1 740.30 1024.83
  L 747.23 1023.88
  A 1.06 1.06 0.0 0 0 748.14 1022.66
  L 747.71 1020.06
  A 1.06 1.06 0.0 0 0 746.54 1019.17
  L 739.57 1020.02"
/>
<path stroke="#f7adaa" vector-effect="non-scaling-stroke" d="
  M 438.78 1028.57
  C 436.81 1026.03 436.24 1022.94 437.53 1020.00
  Q 441.23 1011.57 449.75 1015.68
  Q 450.16 1015.88 450.41 1016.27
  Q 452.33 1019.30 455.62 1017.29
  A 1.72 1.71 53.6 0 0 456.01 1014.70
  Q 450.61 1008.55 442.49 1009.67
  C 433.45 1010.92 429.06 1022.42 433.51 1030.05
  C 436.97 1035.98 447.07 1039.31 452.59 1034.04
  Q 453.14 1033.51 452.62 1032.95
  L 450.47 1030.62
  Q 450.05 1030.16 449.49 1030.42
  Q 442.69 1033.57 438.78 1028.57"
/>
<path stroke="#f7adaa" vector-effect="non-scaling-stroke" d="
  M 721.6674 1012.8743
  A 1.37 1.37 0.0 0 0 720.1533 1011.6656
  L 717.7285 1011.9376
  A 1.37 1.37 0.0 0 0 716.5197 1013.4517
  L 719.1326 1036.7457
  A 1.37 1.37 0.0 0 0 720.6467 1037.9544
  L 723.0715 1037.6824
  A 1.37 1.37 0.0 0 0 724.2803 1036.1683
  L 721.6674 1012.8743"
/>
<path stroke="#f7adaa" vector-effect="non-scaling-stroke" d="
  M 694.59 1023.32
  C 692.99 1020.12 696.44 1017.72 699.37 1018.43
  C 701.69 1018.99 701.33 1021.16 704.87 1020.19
  Q 706.92 1019.62 706.20 1017.62
  C 704.75 1013.59 697.51 1013.56 694.56 1014.63
  C 688.71 1016.75 686.65 1024.09 692.12 1027.99
  C 694.67 1029.81 698.57 1029.86 701.76 1030.37
  C 704.73 1030.84 705.11 1034.35 702.53 1035.57
  Q 697.68 1037.85 694.10 1034.00
  Q 693.59 1033.46 692.94 1033.82
  L 690.02 1035.47
  Q 689.40 1035.82 689.74 1036.45
  C 693.04 1042.53 704.84 1042.37 708.27 1036.59
  C 709.94 1033.78 709.81 1029.67 707.11 1027.38
  C 704.41 1025.09 698.83 1025.46 695.36 1024.03
  Q 694.84 1023.82 694.59 1023.32"
/>
<path stroke="#f7adaa" vector-effect="non-scaling-stroke" d="
  M 474.1248 1041.7596
  A 13.63 13.36 98.8 0 0 489.4127 1030.3339
  A 13.63 13.36 98.8 0 0 478.2952 1014.8204
  A 13.63 13.36 98.8 0 0 463.0073 1026.2461
  A 13.63 13.36 98.8 0 0 474.1248 1041.7596"
/>
<path stroke="#f7adaa" vector-effect="non-scaling-stroke" d="
  M 504.69 1027.93
  Q 508.84 1035.25 512.63 1042.79
  Q 514.50 1046.51 518.56 1045.32
  A 0.96 0.95 84.7 0 0 519.24 1044.49
  L 521.03 1021.50
  Q 521.18 1019.57 519.25 1019.39
  L 517.97 1019.28
  Q 515.99 1019.10 515.83 1021.08
  L 514.69 1035.27
  Q 514.62 1036.11 514.21 1035.37
  Q 510.11 1028.06 505.97 1020.76
  C 504.64 1018.43 503.13 1017.34 500.49 1018.21
  Q 499.95 1018.38 499.90 1018.95
  L 498.00 1042.51
  A 1.54 1.53 4.0 0 0 499.44 1044.16
  L 501.49 1044.28
  Q 503.12 1044.38 503.23 1042.76
  L 504.29 1028.02
  Q 504.34 1027.32 504.69 1027.93"
/>
<path stroke="#f7adaa" vector-effect="non-scaling-stroke" d="
  M 626.44 1040.76
  A 1.22 1.22 0.0 0 1 627.64 1041.54
  L 629.03 1045.06
  A 1.22 1.22 0.0 0 0 630.22 1045.83
  L 633.15 1045.70
  A 1.22 1.22 0.0 0 0 634.23 1044.01
  L 624.59 1020.66
  A 1.22 1.22 0.0 0 0 623.40 1019.90
  L 618.81 1020.13
  A 1.22 1.22 0.0 0 0 617.71 1020.99
  L 610.27 1045.11
  A 1.22 1.22 0.0 0 0 611.52 1046.68
  L 614.59 1046.48
  A 1.22 1.22 0.0 0 0 615.69 1045.56
  L 616.54 1042.14
  A 1.22 1.22 0.0 0 1 617.66 1041.21
  L 626.44 1040.76"
/>
<path stroke="#f7adaa" vector-effect="non-scaling-stroke" d="
  M 535.46 1036.81
  A 1.13 1.13 0.0 0 1 536.62 1035.71
  L 543.38 1035.90
  A 1.13 1.13 0.0 0 0 544.54 1034.90
  L 544.83 1032.32
  A 1.13 1.13 0.0 0 0 543.73 1031.07
  L 536.86 1030.93
  A 1.13 1.13 0.0 0 1 535.75 1029.78
  L 535.81 1026.23
  A 1.13 1.13 0.0 0 1 537.00 1025.12
  L 544.72 1025.56
  A 1.13 1.13 0.0 0 0 545.91 1024.49
  L 546.03 1021.75
  A 1.13 1.13 0.0 0 0 544.93 1020.57
  L 532.07 1020.23
  A 1.13 1.13 0.0 0 0 530.91 1021.31
  L 529.93 1045.06
  A 1.13 1.13 0.0 0 0 531.00 1046.24
  L 544.27 1046.84
  A 1.13 1.13 0.0 0 0 545.45 1045.73
  L 545.49 1043.19
  A 1.13 1.13 0.0 0 0 544.41 1042.04
  L 536.43 1041.71
  A 1.13 1.13 0.0 0 1 535.34 1040.54
  L 535.46 1036.81"
/>
<path stroke="#f7adaa" vector-effect="non-scaling-stroke" d="
  M 561.82 1039.97
  C 555.20 1032.51 564.19 1020.66 572.65 1027.24
  A 2.40 2.39 46.5 0 0 575.48 1027.32
  L 576.67 1026.49
  Q 578.14 1025.47 576.88 1024.19
  C 570.24 1017.43 558.99 1020.21 555.31 1028.81
  Q 553.14 1033.91 555.10 1038.95
  C 558.57 1047.84 570.56 1051.01 577.21 1043.55
  Q 577.71 1042.99 577.15 1042.50
  L 574.71 1040.34
  Q 574.25 1039.94 573.75 1040.30
  Q 566.66 1045.42 561.82 1039.97"
/>
<path stroke="#f7adaa" vector-effect="non-scaling-stroke" d="
  M 591.36 1025.95
  A 1.09 1.09 0.0 0 1 592.44 1027.02
  L 592.84 1046.13
  A 1.09 1.09 0.0 0 0 593.94 1047.20
  L 596.88 1047.18
  A 1.09 1.09 0.0 0 0 597.96 1046.07
  L 597.62 1026.73
  A 1.09 1.09 0.0 0 1 598.72 1025.62
  L 602.67 1025.68
  A 1.09 1.09 0.0 0 0 603.77 1024.56
  L 603.71 1021.78
  A 1.09 1.09 0.0 0 0 602.59 1020.72
  L 587.14 1021.08
  A 1.09 1.09 0.0 0 0 586.08 1022.24
  L 586.24 1024.90
  A 1.09 1.09 0.0 0 0 587.32 1025.93
  L 591.36 1025.95"
/>
<path stroke="#f7adaa" vector-effect="non-scaling-stroke" d="
  M 664.68 1029.60
  A 5.03 5.03 0.0 0 0 659.65 1024.57
  A 5.03 5.03 0.0 0 0 654.62 1029.60
  A 5.03 5.03 0.0 0 0 659.65 1034.63
  A 5.03 5.03 0.0 0 0 664.68 1029.60"
/>
<path stroke="#f7adaa" vector-effect="non-scaling-stroke" d="
  M 424.04 601.91
  C 415.65 625.83 405.22 649.15 395.31 672.47
  A 0.18 0.18 0.0 0 0 395.47 672.72
  L 437.68 674.04
  A 0.49 0.49 0.0 0 0 438.18 673.46
  L 424.66 601.96
  A 0.32 0.32 0.0 0 0 424.04 601.91"
/>
<path stroke="#f7adaa" vector-effect="non-scaling-stroke" d="
  M 924.21 981.70
  L 925.22 987.21
  A 1.00 1.00 0.0 0 0 926.39 988.01
  L 929.54 987.43
  A 4.16 3.51 -10.4 0 0 932.99 983.23
  L 932.89 982.66
  A 4.16 3.51 -10.4 0 0 928.16 979.96
  L 925.02 980.54
  A 1.00 1.00 0.0 0 0 924.21 981.70"
/>
<path stroke="#f7adaa" vector-effect="non-scaling-stroke" d="
  M 475.3008 1036.8942
  A 8.65 8.13 95.9 0 0 484.2769 1029.1257
  A 8.65 8.13 95.9 0 0 477.0792 1019.6858
  A 8.65 8.13 95.9 0 0 468.1031 1027.4543
  A 8.65 8.13 95.9 0 0 475.3008 1036.8942"
/>
<path stroke="#f7adaa" vector-effect="non-scaling-stroke" d="
  M 625.10 1036.28
  A 0.35 0.35 0.0 0 0 625.42 1035.80
  L 621.81 1026.37
  A 0.35 0.35 0.0 0 0 621.15 1026.40
  L 618.30 1035.95
  A 0.35 0.35 0.0 0 0 618.64 1036.40
  L 625.10 1036.28"
/>
</g>
<path fill="#fcf1ed" d="
  M 0.00 0.00
  L 1440.00 0.00
  L 1440.00 1440.00
  L 0.00 1440.00
  L 0.00 0.00
  Z
  M 1062.82 469.43
  C 1067.26 465.50 1074.78 457.52 1074.86 451.27
  C 1074.96 444.27 1064.24 439.90 1058.47 438.27
  Q 1053.17 436.77 1044.35 436.46
  Q 1031.96 436.04 1019.47 436.46
  Q 1018.81 436.49 1019.07 435.88
  C 1021.72 429.97 1025.19 422.53 1024.24 415.94
  C 1022.56 404.23 1002.81 407.52 994.50 408.83
  Q 963.84 413.66 941.31 418.00
  C 894.67 426.98 851.67 434.86 825.00 439.54
  C 735.00 455.34 643.97 454.87 553.63 441.75
  C 500.97 434.11 448.68 415.44 400.08 394.21
  C 395.34 392.14 391.31 391.62 388.90 396.83
  C 385.61 403.95 393.32 408.88 398.62 411.47
  Q 443.77 433.50 492.77 444.65
  Q 528.40 452.77 574.04 458.56
  Q 610.07 463.14 632.50 464.74
  C 692.99 469.08 755.37 464.21 817.85 456.31
  Q 827.74 455.06 837.61 453.26
  C 876.93 446.06 915.93 437.31 954.85 428.27
  C 967.42 425.35 978.17 423.30 989.74 421.98
  C 993.46 421.55 999.99 421.14 1003.49 423.21
  A 1.64 1.63 42.8 0 1 1003.60 425.95
  C 985.85 438.44 965.60 441.99 945.35 448.11
  Q 938.49 450.18 934.37 454.56
  C 931.02 458.12 930.23 463.53 935.99 465.26
  C 943.15 467.41 951.98 465.33 960.33 462.81
  C 980.63 456.69 1001.39 452.46 1022.37 449.55
  C 1028.44 448.71 1047.12 446.93 1050.83 451.56
  A 1.06 1.04 -58.4 0 1 1051.04 452.47
  C 1049.82 457.64 1040.96 459.88 1035.96 461.21
  Q 1009.13 468.32 968.31 481.46
  Q 962.82 483.23 961.04 485.82
  C 954.50 495.38 971.34 496.05 976.00 495.51
  Q 1011.86 491.28 1047.75 487.37
  C 1053.81 486.71 1081.10 484.97 1084.29 490.88
  A 1.14 1.13 -48.9 0 1 1084.35 491.81
  C 1082.30 497.21 1070.55 500.34 1065.48 501.08
  Q 1031.43 506.03 997.27 510.14
  Q 985.66 511.54 974.00 512.38
  Q 969.74 512.68 967.92 514.41
  C 964.23 517.92 965.72 521.94 969.88 523.78
  C 973.94 525.58 980.09 525.38 984.50 525.47
  Q 1023.62 526.23 1062.74 527.39
  C 1067.13 527.52 1074.88 528.36 1077.50 532.24
  Q 1077.80 532.68 1077.72 533.20
  C 1075.89 545.67 1017.73 544.66 1007.75 544.72
  C 1002.20 544.75 993.99 544.11 987.76 544.64
  C 984.03 544.95 976.46 548.00 975.75 552.45
  C 974.66 559.21 987.07 561.58 991.79 562.42
  C 1006.51 565.04 1020.99 568.65 1035.68 571.47
  C 1039.25 572.16 1041.67 573.12 1044.21 575.32
  A 2.34 2.34 0.0 0 1 1044.37 578.71
  C 1040.54 582.71 1030.24 583.77 1024.98 584.29
  Q 968.56 589.84 911.98 593.47
  Q 887.77 595.03 872.75 594.50
  Q 824.91 592.83 766.44 587.24
  Q 756.32 586.27 746.56 585.14
  Q 631.83 571.88 524.50 546.48
  Q 490.63 538.46 383.60 512.13
  C 378.81 510.95 373.11 509.94 369.00 510.51
  C 362.84 511.35 359.47 515.61 362.34 521.70
  C 364.22 525.69 369.14 527.95 373.79 529.40
  Q 391.07 534.77 408.78 538.49
  C 500.92 557.87 592.24 581.22 685.57 594.41
  C 708.69 597.68 731.11 599.81 757.00 602.48
  Q 882.88 615.50 1007.91 603.14
  C 1021.88 601.76 1033.97 599.07 1046.53 594.80
  Q 1052.64 592.73 1057.19 589.94
  C 1065.88 584.62 1066.01 573.55 1059.23 566.63
  C 1055.69 563.02 1048.58 560.24 1043.40 557.90
  A 0.36 0.36 0.0 0 1 1043.49 557.21
  Q 1053.47 555.50 1063.75 554.49
  Q 1077.36 553.15 1088.29 545.04
  C 1094.90 540.14 1099.26 532.60 1092.98 525.14
  C 1089.46 520.97 1084.17 518.32 1080.30 514.49
  A 1.22 1.21 54.7 0 1 1080.63 512.53
  Q 1089.08 508.49 1097.50 503.50
  C 1106.59 498.12 1109.69 487.54 1100.71 480.01
  Q 1097.75 477.51 1094.93 476.50
  Q 1081.12 471.54 1063.05 470.11
  Q 1062.14 470.04 1062.82 469.43
  Z
  M 441.05 690.27
  Q 446.96 723.09 452.38 756.00
  Q 453.13 760.53 454.43 762.19
  C 457.94 766.67 466.12 763.83 467.61 758.87
  Q 468.27 756.71 467.43 751.63
  Q 453.10 664.13 434.77 573.49
  C 434.21 570.69 433.28 568.61 430.47 567.45
  C 426.99 566.01 421.80 564.87 418.94 567.76
  Q 417.65 569.06 416.50 573.16
  Q 408.97 600.14 395.51 631.98
  Q 371.42 688.94 347.48 745.94
  C 346.28 748.78 344.81 751.46 346.28 754.32
  C 348.59 758.78 355.37 759.58 358.98 756.25
  Q 360.68 754.68 362.60 750.13
  Q 375.57 719.45 388.35 688.95
  A 1.27 1.25 12.0 0 1 389.54 688.19
  L 440.45 689.75
  Q 440.96 689.77 441.05 690.27
  Z
  M 490.56 617.05
  C 499.46 635.24 508.40 653.36 516.73 671.84
  Q 519.77 678.57 523.53 681.49
  C 535.13 690.45 539.87 675.88 542.13 667.62
  Q 546.97 649.98 552.39 632.84
  A 0.35 0.34 50.7 0 1 553.06 632.91
  Q 562.00 705.96 572.20 778.51
  C 572.96 783.87 576.00 786.59 581.50 785.20
  Q 588.62 783.39 587.48 775.15
  Q 576.88 698.57 571.14 652.16
  C 568.79 633.15 565.95 614.34 563.17 595.48
  C 562.75 592.62 561.32 589.82 558.58 589.16
  Q 552.20 587.61 549.26 591.87
  Q 548.46 593.04 546.23 599.86
  Q 536.51 629.63 528.56 660.00
  Q 528.37 660.75 528.07 660.04
  C 525.41 653.66 522.80 647.13 519.80 641.13
  Q 503.20 607.98 487.84 574.24
  C 485.69 569.50 479.70 569.64 476.22 572.42
  C 473.03 574.97 473.28 577.91 473.35 581.75
  C 474.40 637.23 478.04 678.86 483.47 753.05
  Q 483.96 759.71 484.17 760.39
  C 485.86 765.81 494.81 767.41 498.08 762.68
  C 500.16 759.66 499.12 754.68 498.86 751.01
  Q 494.79 694.01 491.04 637.00
  Q 490.39 627.09 490.06 617.17
  Q 490.01 615.93 490.56 617.05
  Z
  M 672.08 782.31
  C 678.53 767.87 680.23 754.39 681.52 737.27
  Q 683.47 711.33 681.90 689.25
  Q 679.86 660.46 673.87 620.65
  C 673.49 618.08 672.40 613.02 670.70 611.27
  C 666.91 607.36 659.29 609.32 657.69 614.42
  Q 657.07 616.41 657.94 621.07
  Q 668.58 677.40 665.55 734.74
  Q 664.94 746.44 661.82 763.21
  C 660.03 772.84 655.02 786.79 643.01 785.88
  C 634.63 785.26 627.91 776.46 625.10 769.05
  Q 620.14 755.97 616.78 742.35
  C 605.74 697.55 603.81 651.20 603.69 605.25
  Q 603.67 597.59 596.52 596.81
  C 590.15 596.12 587.91 600.31 587.97 606.15
  C 588.41 646.79 590.27 690.42 597.94 731.02
  C 601.64 750.62 606.98 774.19 619.63 789.60
  C 635.16 808.51 662.25 804.31 672.08 782.31
  Z
  M 748.65 694.01
  A 0.22 0.22 0.0 0 1 748.25 694.08
  Q 726.21 656.79 704.19 619.39
  C 701.15 614.22 698.92 609.82 692.78 611.72
  Q 686.86 613.55 687.01 618.76
  Q 687.09 621.45 689.85 626.11
  Q 716.38 671.01 742.90 715.92
  C 743.40 716.76 743.40 717.60 743.18 718.50
  Q 734.24 753.80 723.46 788.59
  C 721.66 794.39 721.27 799.14 728.02 800.97
  C 735.01 802.85 736.93 798.33 738.56 792.92
  C 754.52 740.10 769.28 687.98 772.89 633.62
  Q 773.20 629.00 772.11 627.02
  C 769.46 622.17 760.97 622.91 758.48 627.64
  Q 757.60 629.30 757.21 634.51
  Q 754.95 664.60 748.65 694.01
  Z
  M 1026.3689 626.0349
  A 7.26 7.26 0.0 0 0 1018.5617 619.3669
  L 1017.4451 619.4548
  A 7.26 7.26 0.0 0 0 1010.7771 627.2620
  L 1020.3711 749.1651
  A 7.26 7.26 0.0 0 0 1028.1783 755.8331
  L 1029.2949 755.7452
  A 7.26 7.26 0.0 0 0 1035.9629 747.9380
  L 1026.3689 626.0349
  Z
  M 919.75 665.73
  C 932.15 684.73 943.07 704.47 955.02 723.71
  Q 967.63 744.02 979.27 764.92
  C 982.93 771.48 993.55 770.63 994.16 762.48
  Q 994.59 756.62 994.55 750.75
  Q 994.12 689.48 991.54 628.25
  Q 991.27 621.77 985.24 620.58
  C 978.98 619.36 975.81 623.31 975.99 629.19
  C 977.05 663.21 978.40 697.16 978.65 731.23
  Q 978.66 732.08 978.20 731.36
  Q 968.22 715.77 961.17 703.58
  Q 938.70 664.69 915.37 630.15
  C 910.98 623.65 899.54 625.67 900.42 634.76
  Q 907.43 707.25 914.22 779.77
  Q 914.70 784.85 915.65 786.54
  C 918.36 791.32 927.65 792.31 929.73 786.54
  Q 930.42 784.60 929.92 779.41
  Q 924.41 722.66 919.34 665.87
  Q 919.26 664.97 919.75 665.73
  Z
  M 837.02 794.59
  C 861.86 800.34 874.24 777.70 879.41 757.49
  C 889.78 716.95 889.78 675.21 883.77 633.86
  Q 883.15 629.56 881.87 627.97
  C 878.39 623.62 870.55 626.95 868.84 631.57
  Q 867.98 633.91 868.72 638.97
  Q 874.75 680.09 870.42 721.49
  C 868.80 736.96 866.29 752.51 859.61 766.88
  C 856.59 773.36 849.83 780.96 841.96 779.53
  C 825.41 776.53 818.02 755.61 814.73 740.74
  C 806.81 704.87 802.18 671.70 804.31 636.24
  C 804.86 627.08 793.02 626.84 789.95 632.64
  Q 788.71 634.97 788.45 641.07
  Q 786.37 688.54 797.53 734.54
  C 802.74 756.02 811.59 788.69 837.02 794.59
  Z
  M 420.45 809.01
  Q 408.23 808.99 396.00 809.00
  C 385.30 809.01 356.15 814.64 368.33 832.15
  Q 372.13 837.62 376.99 841.75
  A 0.63 0.63 0.0 0 1 376.62 842.86
  Q 360.30 843.96 345.04 849.53
  Q 337.19 852.40 334.71 858.70
  C 329.22 872.65 350.20 880.63 359.23 885.10
  A 1.45 1.45 0.0 0 1 359.53 887.51
  Q 354.42 891.84 349.09 896.09
  C 339.90 903.42 344.68 912.83 352.45 918.33
  C 365.94 927.87 380.88 927.19 396.41 929.89
  A 0.34 0.34 0.0 0 1 396.50 930.53
  C 391.33 932.97 384.38 935.75 380.77 939.39
  C 375.45 944.76 374.19 954.38 379.48 959.99
  Q 382.08 962.75 389.44 965.72
  Q 407.93 973.16 424.75 975.02
  Q 545.95 988.43 672.59 976.17
  Q 691.59 974.33 692.42 974.25
  Q 783.30 965.51 872.50 945.96
  Q 957.26 927.39 1042.00 908.75
  Q 1055.33 905.82 1068.24 901.41
  Q 1072.58 899.93 1075.20 897.70
  C 1080.26 893.39 1080.18 884.13 1071.99 883.34
  Q 1064.76 882.64 1057.73 884.37
  Q 995.75 899.66 933.75 914.81
  C 824.36 941.54 710.65 959.35 600.48 965.52
  C 580.66 966.63 558.48 967.87 540.74 967.02
  Q 496.39 964.91 428.30 958.40
  C 416.40 957.26 410.24 956.81 401.30 954.38
  C 389.26 951.11 397.82 945.26 404.00 944.16
  C 419.26 941.43 434.16 937.42 449.45 934.93
  C 453.53 934.27 465.99 931.12 464.34 925.02
  C 462.92 919.74 454.40 917.06 449.75 917.14
  Q 415.70 917.68 388.00 915.81
  C 380.70 915.31 366.14 912.99 362.45 906.56
  Q 362.20 906.13 362.34 905.66
  C 364.05 899.82 378.37 899.98 384.47 899.83
  Q 422.86 898.90 461.25 898.08
  Q 465.75 897.98 470.00 896.53
  C 474.42 895.03 475.90 890.15 472.03 887.10
  C 469.70 885.28 467.12 885.32 464.30 885.02
  Q 419.48 880.24 374.86 873.88
  C 368.68 872.99 359.93 870.06 356.15 865.67
  A 2.07 2.06 51.2 0 1 356.47 862.68
  C 357.60 861.82 359.46 860.96 360.98 860.71
  Q 376.41 858.16 392.50 859.96
  Q 433.41 864.54 459.74 867.79
  C 464.46 868.37 475.56 869.24 479.13 865.38
  C 483.66 860.49 475.79 855.19 472.02 853.97
  Q 443.10 844.57 400.21 832.76
  C 396.25 831.67 390.33 829.69 389.15 825.46
  Q 389.02 825.01 389.21 824.59
  C 391.40 819.69 412.00 821.32 417.38 822.10
  Q 442.92 825.79 467.95 832.02
  C 479.38 834.87 491.85 840.83 503.73 837.93
  C 509.09 836.62 509.48 831.94 506.39 828.12
  Q 502.34 823.14 495.00 820.90
  Q 479.31 816.11 463.54 811.65
  Q 448.94 807.52 436.44 798.56
  A 1.59 1.59 0.0 0 1 436.36 796.05
  C 442.73 790.81 477.67 799.10 486.34 801.15
  Q 533.12 812.23 580.21 821.93
  Q 603.98 826.83 632.75 830.20
  C 695.30 837.52 755.56 842.18 816.95 836.60
  Q 857.87 832.87 898.50 826.79
  C 950.40 819.03 997.31 805.82 1042.47 783.39
  C 1047.97 780.66 1056.15 774.82 1050.20 767.72
  C 1047.84 764.90 1044.38 764.89 1041.00 766.39
  Q 986.22 790.71 932.77 804.98
  C 905.73 812.20 877.29 815.95 848.31 819.10
  Q 757.52 828.97 666.69 819.62
  C 643.24 817.21 619.68 813.20 596.50 808.93
  Q 537.03 797.97 477.61 786.73
  C 465.21 784.38 453.23 782.59 441.03 780.81
  C 434.65 779.87 422.93 778.75 418.26 783.79
  C 412.37 790.15 418.19 801.99 420.83 808.44
  Q 421.07 809.01 420.45 809.01
  Z
  M 1013.53 979.11
  A 1.13 1.13 0.0 0 1 1012.19 978.27
  L 1011.31 974.62
  A 1.13 1.13 0.0 0 1 1012.18 973.25
  L 1018.98 971.84
  A 1.13 1.13 0.0 0 0 1019.85 970.47
  L 1019.25 967.90
  A 1.13 1.13 0.0 0 0 1017.90 967.05
  L 1011.16 968.58
  A 1.13 1.13 0.0 0 1 1009.81 967.72
  L 1009.08 964.37
  A 1.13 1.13 0.0 0 1 1009.95 963.02
  L 1017.56 961.41
  A 1.13 1.13 0.0 0 0 1018.43 960.06
  L 1017.87 957.45
  A 1.13 1.13 0.0 0 0 1016.52 956.58
  L 1003.87 959.44
  A 1.13 1.13 0.0 0 0 1003.02 960.79
  L 1008.10 984.04
  A 1.13 1.13 0.0 0 0 1009.44 984.90
  L 1022.63 982.04
  A 1.13 1.13 0.0 0 0 1023.47 980.60
  L 1022.73 978.19
  A 1.13 1.13 0.0 0 0 1021.41 977.42
  L 1013.53 979.11
  Z
  M 991.33 989.14
  Q 995.54 987.63 997.82 983.62
  A 0.67 0.66 -62.1 0 0 997.54 982.70
  L 994.49 981.13
  Q 993.91 980.83 993.47 981.31
  Q 986.96 988.39 980.91 982.61
  C 974.42 976.40 980.49 965.00 989.41 968.52
  Q 991.53 969.35 993.01 967.63
  L 993.58 966.97
  Q 995.01 965.32 993.00 964.47
  Q 984.54 960.91 978.70 965.16
  C 966.15 974.31 976.02 994.67 991.33 989.14
  Z
  M 957.49 991.01
  A 1.15 1.15 0.0 0 1 956.13 990.15
  L 955.30 986.56
  A 1.15 1.15 0.0 0 1 956.17 985.18
  L 962.96 983.67
  A 1.15 1.15 0.0 0 0 963.84 982.32
  L 963.34 979.84
  A 1.15 1.15 0.0 0 0 961.97 978.94
  L 955.21 980.42
  A 1.15 1.15 0.0 0 1 953.83 979.50
  L 953.20 976.09
  A 1.15 1.15 0.0 0 1 954.13 974.75
  L 961.69 973.39
  A 1.15 1.15 0.0 0 0 962.61 972.02
  L 962.08 969.48
  A 1.15 1.15 0.0 0 0 960.73 968.58
  L 948.06 971.10
  A 1.15 1.15 0.0 0 0 947.15 972.46
  L 951.99 995.89
  A 1.15 1.15 0.0 0 0 953.35 996.79
  L 966.28 994.11
  A 1.15 1.15 0.0 0 0 967.17 992.72
  L 966.58 990.25
  A 1.15 1.15 0.0 0 0 965.22 989.39
  L 957.49 991.01
  Z
  M 927.17 992.18
  L 930.05 991.96
  Q 930.68 991.91 931.10 992.39
  L 936.66 998.79
  Q 937.83 1000.14 939.55 999.64
  L 941.75 998.99
  Q 943.38 998.51 942.21 997.29
  L 935.62 990.39
  Q 935.29 990.04 935.60 989.66
  C 941.50 982.61 936.73 973.98 927.73 975.29
  Q 923.30 975.93 918.63 977.07
  A 0.63 0.62 -12.4 0 0 918.16 977.80
  L 922.82 1001.19
  Q 923.12 1002.72 924.67 1002.51
  L 926.50 1002.27
  Q 928.27 1002.03 927.92 1000.29
  L 926.49 993.09
  A 0.76 0.76 0.0 0 1 927.17 992.18
  Z
  M 892.96 994.31
  C 892.37 988.41 898.31 983.34 904.10 985.93
  Q 906.18 986.86 907.76 985.21
  L 908.09 984.87
  Q 909.93 982.95 907.50 981.87
  C 888.49 973.42 879.73 1001.35 897.12 1006.80
  Q 905.20 1009.34 911.77 1002.46
  A 1.73 1.73 0.0 0 0 911.59 999.90
  L 911.21 999.61
  Q 909.26 998.08 907.34 999.65
  C 900.80 1005.03 893.75 1002.09 892.96 994.31
  Z
  M 822.45 1006.40
  A 1.08 1.08 0.0 0 1 821.19 1005.53
  L 820.55 1002.07
  A 1.08 1.08 0.0 0 1 821.42 1000.81
  L 829.19 999.39
  A 1.08 1.08 0.0 0 0 830.04 998.06
  L 829.40 995.51
  A 1.08 1.08 0.0 0 0 828.17 994.71
  L 815.42 997.00
  A 1.08 1.08 0.0 0 0 814.55 998.26
  L 819.01 1021.90
  A 1.08 1.08 0.0 0 0 820.27 1022.76
  L 833.58 1020.35
  A 1.08 1.08 0.0 0 0 834.43 1019.02
  L 833.77 1016.43
  A 1.08 1.08 0.0 0 0 832.54 1015.64
  L 824.51 1017.01
  A 1.08 1.08 0.0 0 1 823.28 1016.16
  L 822.50 1012.49
  A 1.08 1.08 0.0 0 1 823.35 1011.21
  L 830.24 1009.85
  A 1.08 1.08 0.0 0 0 831.09 1008.59
  L 830.59 1006.00
  A 1.08 1.08 0.0 0 0 829.34 1005.14
  L 822.45 1006.40
  Z
  M 866.21 1001.81
  A 5.07 5.07 0.0 0 0 861.14 996.74
  A 5.07 5.07 0.0 0 0 856.07 1001.81
  A 5.07 5.07 0.0 0 0 861.14 1006.88
  A 5.07 5.07 0.0 0 0 866.21 1001.81
  Z
  M 799.67 1006.11
  A 1.12 1.12 0.0 0 1 800.56 1004.80
  L 804.58 1004.04
  A 1.12 1.12 0.0 0 0 805.48 1002.78
  L 805.12 1000.24
  A 1.12 1.12 0.0 0 0 803.80 999.29
  L 788.59 1002.20
  A 1.12 1.12 0.0 0 0 787.70 1003.49
  L 788.10 1005.92
  A 1.12 1.12 0.0 0 0 789.41 1006.84
  L 793.42 1006.13
  A 1.12 1.12 0.0 0 1 794.72 1007.03
  L 798.05 1025.69
  A 1.12 1.12 0.0 0 0 799.31 1026.60
  L 802.28 1026.19
  A 1.12 1.12 0.0 0 0 803.23 1024.87
  L 799.67 1006.11
  Z
  M 764.03 1016.07
  Q 769.70 1021.73 774.81 1027.91
  C 776.73 1030.24 778.66 1031.24 781.34 1029.46
  Q 781.73 1029.20 781.67 1028.73
  L 778.32 1005.49
  A 1.61 1.61 0.0 0 0 776.49 1004.13
  L 774.55 1004.41
  Q 773.01 1004.64 773.23 1006.18
  L 775.23 1020.74
  Q 775.34 1021.50 774.83 1020.93
  Q 769.10 1014.53 763.54 1007.97
  Q 761.76 1005.87 758.21 1006.81
  A 1.37 1.37 0.0 0 0 757.20 1008.33
  L 760.56 1031.33
  Q 760.79 1032.88 762.33 1032.65
  L 764.25 1032.36
  Q 765.86 1032.13 765.63 1030.51
  L 763.62 1016.27
  Q 763.52 1015.57 764.03 1016.07
  Z
  M 739.57 1020.02
  A 1.06 1.06 0.0 0 1 738.39 1019.11
  L 737.91 1015.53
  A 1.06 1.06 0.0 0 1 738.84 1014.34
  L 746.65 1013.44
  A 1.06 1.06 0.0 0 0 747.58 1012.28
  L 747.29 1009.50
  A 1.06 1.06 0.0 0 0 746.10 1008.56
  L 733.17 1010.33
  A 1.06 1.06 0.0 0 0 732.26 1011.51
  L 735.28 1035.29
  A 1.06 1.06 0.0 0 0 736.46 1036.20
  L 749.83 1034.59
  A 1.06 1.06 0.0 0 0 750.76 1033.44
  L 750.50 1030.72
  A 1.06 1.06 0.0 0 0 749.33 1029.77
  L 740.91 1030.68
  A 1.06 1.06 0.0 0 1 739.74 1029.73
  L 739.39 1025.98
  A 1.06 1.06 0.0 0 1 740.30 1024.83
  L 747.23 1023.88
  A 1.06 1.06 0.0 0 0 748.14 1022.66
  L 747.71 1020.06
  A 1.06 1.06 0.0 0 0 746.54 1019.17
  L 739.57 1020.02
  Z
  M 438.78 1028.57
  C 436.81 1026.03 436.24 1022.94 437.53 1020.00
  Q 441.23 1011.57 449.75 1015.68
  Q 450.16 1015.88 450.41 1016.27
  Q 452.33 1019.30 455.62 1017.29
  A 1.72 1.71 53.6 0 0 456.01 1014.70
  Q 450.61 1008.55 442.49 1009.67
  C 433.45 1010.92 429.06 1022.42 433.51 1030.05
  C 436.97 1035.98 447.07 1039.31 452.59 1034.04
  Q 453.14 1033.51 452.62 1032.95
  L 450.47 1030.62
  Q 450.05 1030.16 449.49 1030.42
  Q 442.69 1033.57 438.78 1028.57
  Z
  M 721.6674 1012.8743
  A 1.37 1.37 0.0 0 0 720.1533 1011.6656
  L 717.7285 1011.9376
  A 1.37 1.37 0.0 0 0 716.5197 1013.4517
  L 719.1326 1036.7457
  A 1.37 1.37 0.0 0 0 720.6467 1037.9544
  L 723.0715 1037.6824
  A 1.37 1.37 0.0 0 0 724.2803 1036.1683
  L 721.6674 1012.8743
  Z
  M 694.59 1023.32
  C 692.99 1020.12 696.44 1017.72 699.37 1018.43
  C 701.69 1018.99 701.33 1021.16 704.87 1020.19
  Q 706.92 1019.62 706.20 1017.62
  C 704.75 1013.59 697.51 1013.56 694.56 1014.63
  C 688.71 1016.75 686.65 1024.09 692.12 1027.99
  C 694.67 1029.81 698.57 1029.86 701.76 1030.37
  C 704.73 1030.84 705.11 1034.35 702.53 1035.57
  Q 697.68 1037.85 694.10 1034.00
  Q 693.59 1033.46 692.94 1033.82
  L 690.02 1035.47
  Q 689.40 1035.82 689.74 1036.45
  C 693.04 1042.53 704.84 1042.37 708.27 1036.59
  C 709.94 1033.78 709.81 1029.67 707.11 1027.38
  C 704.41 1025.09 698.83 1025.46 695.36 1024.03
  Q 694.84 1023.82 694.59 1023.32
  Z
  M 474.1248 1041.7596
  A 13.63 13.36 98.8 0 0 489.4127 1030.3339
  A 13.63 13.36 98.8 0 0 478.2952 1014.8204
  A 13.63 13.36 98.8 0 0 463.0073 1026.2461
  A 13.63 13.36 98.8 0 0 474.1248 1041.7596
  Z
  M 504.69 1027.93
  Q 508.84 1035.25 512.63 1042.79
  Q 514.50 1046.51 518.56 1045.32
  A 0.96 0.95 84.7 0 0 519.24 1044.49
  L 521.03 1021.50
  Q 521.18 1019.57 519.25 1019.39
  L 517.97 1019.28
  Q 515.99 1019.10 515.83 1021.08
  L 514.69 1035.27
  Q 514.62 1036.11 514.21 1035.37
  Q 510.11 1028.06 505.97 1020.76
  C 504.64 1018.43 503.13 1017.34 500.49 1018.21
  Q 499.95 1018.38 499.90 1018.95
  L 498.00 1042.51
  A 1.54 1.53 4.0 0 0 499.44 1044.16
  L 501.49 1044.28
  Q 503.12 1044.38 503.23 1042.76
  L 504.29 1028.02
  Q 504.34 1027.32 504.69 1027.93
  Z
  M 626.44 1040.76
  A 1.22 1.22 0.0 0 1 627.64 1041.54
  L 629.03 1045.06
  A 1.22 1.22 0.0 0 0 630.22 1045.83
  L 633.15 1045.70
  A 1.22 1.22 0.0 0 0 634.23 1044.01
  L 624.59 1020.66
  A 1.22 1.22 0.0 0 0 623.40 1019.90
  L 618.81 1020.13
  A 1.22 1.22 0.0 0 0 617.71 1020.99
  L 610.27 1045.11
  A 1.22 1.22 0.0 0 0 611.52 1046.68
  L 614.59 1046.48
  A 1.22 1.22 0.0 0 0 615.69 1045.56
  L 616.54 1042.14
  A 1.22 1.22 0.0 0 1 617.66 1041.21
  L 626.44 1040.76
  Z
  M 535.46 1036.81
  A 1.13 1.13 0.0 0 1 536.62 1035.71
  L 543.38 1035.90
  A 1.13 1.13 0.0 0 0 544.54 1034.90
  L 544.83 1032.32
  A 1.13 1.13 0.0 0 0 543.73 1031.07
  L 536.86 1030.93
  A 1.13 1.13 0.0 0 1 535.75 1029.78
  L 535.81 1026.23
  A 1.13 1.13 0.0 0 1 537.00 1025.12
  L 544.72 1025.56
  A 1.13 1.13 0.0 0 0 545.91 1024.49
  L 546.03 1021.75
  A 1.13 1.13 0.0 0 0 544.93 1020.57
  L 532.07 1020.23
  A 1.13 1.13 0.0 0 0 530.91 1021.31
  L 529.93 1045.06
  A 1.13 1.13 0.0 0 0 531.00 1046.24
  L 544.27 1046.84
  A 1.13 1.13 0.0 0 0 545.45 1045.73
  L 545.49 1043.19
  A 1.13 1.13 0.0 0 0 544.41 1042.04
  L 536.43 1041.71
  A 1.13 1.13 0.0 0 1 535.34 1040.54
  L 535.46 1036.81
  Z
  M 561.82 1039.97
  C 555.20 1032.51 564.19 1020.66 572.65 1027.24
  A 2.40 2.39 46.5 0 0 575.48 1027.32
  L 576.67 1026.49
  Q 578.14 1025.47 576.88 1024.19
  C 570.24 1017.43 558.99 1020.21 555.31 1028.81
  Q 553.14 1033.91 555.10 1038.95
  C 558.57 1047.84 570.56 1051.01 577.21 1043.55
  Q 577.71 1042.99 577.15 1042.50
  L 574.71 1040.34
  Q 574.25 1039.94 573.75 1040.30
  Q 566.66 1045.42 561.82 1039.97
  Z
  M 591.36 1025.95
  A 1.09 1.09 0.0 0 1 592.44 1027.02
  L 592.84 1046.13
  A 1.09 1.09 0.0 0 0 593.94 1047.20
  L 596.88 1047.18
  A 1.09 1.09 0.0 0 0 597.96 1046.07
  L 597.62 1026.73
  A 1.09 1.09 0.0 0 1 598.72 1025.62
  L 602.67 1025.68
  A 1.09 1.09 0.0 0 0 603.77 1024.56
  L 603.71 1021.78
  A 1.09 1.09 0.0 0 0 602.59 1020.72
  L 587.14 1021.08
  A 1.09 1.09 0.0 0 0 586.08 1022.24
  L 586.24 1024.90
  A 1.09 1.09 0.0 0 0 587.32 1025.93
  L 591.36 1025.95
  Z
  M 664.68 1029.60
  A 5.03 5.03 0.0 0 0 659.65 1024.57
  A 5.03 5.03 0.0 0 0 654.62 1029.60
  A 5.03 5.03 0.0 0 0 659.65 1034.63
  A 5.03 5.03 0.0 0 0 664.68 1029.60
  Z"
/>
<path fill="#f26966" d="
  M 1063.05 470.11
  Q 1081.12 471.54 1094.93 476.50
  Q 1097.75 477.51 1100.71 480.01
  C 1109.69 487.54 1106.59 498.12 1097.50 503.50
  Q 1089.08 508.49 1080.63 512.53
  A 1.22 1.21 54.7 0 0 1080.30 514.49
  C 1084.17 518.32 1089.46 520.97 1092.98 525.14
  C 1099.26 532.60 1094.90 540.14 1088.29 545.04
  Q 1077.36 553.15 1063.75 554.49
  Q 1053.47 555.50 1043.49 557.21
  A 0.36 0.36 0.0 0 0 1043.40 557.90
  C 1048.58 560.24 1055.69 563.02 1059.23 566.63
  C 1066.01 573.55 1065.88 584.62 1057.19 589.94
  Q 1052.64 592.73 1046.53 594.80
  C 1033.97 599.07 1021.88 601.76 1007.91 603.14
  Q 882.88 615.50 757.00 602.48
  C 731.11 599.81 708.69 597.68 685.57 594.41
  C 592.24 581.22 500.92 557.87 408.78 538.49
  Q 391.07 534.77 373.79 529.40
  C 369.14 527.95 364.22 525.69 362.34 521.70
  C 359.47 515.61 362.84 511.35 369.00 510.51
  C 373.11 509.94 378.81 510.95 383.60 512.13
  Q 490.63 538.46 524.50 546.48
  Q 631.83 571.88 746.56 585.14
  Q 756.32 586.27 766.44 587.24
  Q 824.91 592.83 872.75 594.50
  Q 887.77 595.03 911.98 593.47
  Q 968.56 589.84 1024.98 584.29
  C 1030.24 583.77 1040.54 582.71 1044.37 578.71
  A 2.34 2.34 0.0 0 0 1044.21 575.32
  C 1041.67 573.12 1039.25 572.16 1035.68 571.47
  C 1020.99 568.65 1006.51 565.04 991.79 562.42
  C 987.07 561.58 974.66 559.21 975.75 552.45
  C 976.46 548.00 984.03 544.95 987.76 544.64
  C 993.99 544.11 1002.20 544.75 1007.75 544.72
  C 1017.73 544.66 1075.89 545.67 1077.72 533.20
  Q 1077.80 532.68 1077.50 532.24
  C 1074.88 528.36 1067.13 527.52 1062.74 527.39
  Q 1023.62 526.23 984.50 525.47
  C 980.09 525.38 973.94 525.58 969.88 523.78
  C 965.72 521.94 964.23 517.92 967.92 514.41
  Q 969.74 512.68 974.00 512.38
  Q 985.66 511.54 997.27 510.14
  Q 1031.43 506.03 1065.48 501.08
  C 1070.55 500.34 1082.30 497.21 1084.35 491.81
  A 1.14 1.13 -48.9 0 0 1084.29 490.88
  C 1081.10 484.97 1053.81 486.71 1047.75 487.37
  Q 1011.86 491.28 976.00 495.51
  C 971.34 496.05 954.50 495.38 961.04 485.82
  Q 962.82 483.23 968.31 481.46
  Q 1009.13 468.32 1035.96 461.21
  C 1040.96 459.88 1049.82 457.64 1051.04 452.47
  A 1.06 1.04 -58.4 0 0 1050.83 451.56
  C 1047.12 446.93 1028.44 448.71 1022.37 449.55
  C 1001.39 452.46 980.63 456.69 960.33 462.81
  C 951.98 465.33 943.15 467.41 935.99 465.26
  C 930.23 463.53 931.02 458.12 934.37 454.56
  Q 938.49 450.18 945.35 448.11
  C 965.60 441.99 985.85 438.44 1003.60 425.95
  A 1.64 1.63 42.8 0 0 1003.49 423.21
  C 999.99 421.14 993.46 421.55 989.74 421.98
  C 978.17 423.30 967.42 425.35 954.85 428.27
  C 915.93 437.31 876.93 446.06 837.61 453.26
  Q 827.74 455.06 817.85 456.31
  C 755.37 464.21 692.99 469.08 632.50 464.74
  Q 610.07 463.14 574.04 458.56
  Q 528.40 452.77 492.77 444.65
  Q 443.77 433.50 398.62 411.47
  C 393.32 408.88 385.61 403.95 388.90 396.83
  C 391.31 391.62 395.34 392.14 400.08 394.21
  C 448.68 415.44 500.97 434.11 553.63 441.75
  C 643.97 454.87 735.00 455.34 825.00 439.54
  C 851.67 434.86 894.67 426.98 941.31 418.00
  Q 963.84 413.66 994.50 408.83
  C 1002.81 407.52 1022.56 404.23 1024.24 415.94
  C 1025.19 422.53 1021.72 429.97 1019.07 435.88
  Q 1018.81 436.49 1019.47 436.46
  Q 1031.96 436.04 1044.35 436.46
  Q 1053.17 436.77 1058.47 438.27
  C 1064.24 439.90 1074.96 444.27 1074.86 451.27
  C 1074.78 457.52 1067.26 465.50 1062.82 469.43
  Q 1062.14 470.04 1063.05 470.11
  Z"
/>
<path fill="#f26966" d="
  M 440.45 689.75
  L 389.54 688.19
  A 1.27 1.25 12.0 0 0 388.35 688.95
  Q 375.57 719.45 362.60 750.13
  Q 360.68 754.68 358.98 756.25
  C 355.37 759.58 348.59 758.78 346.28 754.32
  C 344.81 751.46 346.28 748.78 347.48 745.94
  Q 371.42 688.94 395.51 631.98
  Q 408.97 600.14 416.50 573.16
  Q 417.65 569.06 418.94 567.76
  C 421.80 564.87 426.99 566.01 430.47 567.45
  C 433.28 568.61 434.21 570.69 434.77 573.49
  Q 453.10 664.13 467.43 751.63
  Q 468.27 756.71 467.61 758.87
  C 466.12 763.83 457.94 766.67 454.43 762.19
  Q 453.13 760.53 452.38 756.00
  Q 446.96 723.09 441.05 690.27
  Q 440.96 689.77 440.45 689.75
  Z
  M 424.04 601.91
  C 415.65 625.83 405.22 649.15 395.31 672.47
  A 0.18 0.18 0.0 0 0 395.47 672.72
  L 437.68 674.04
  A 0.49 0.49 0.0 0 0 438.18 673.46
  L 424.66 601.96
  A 0.32 0.32 0.0 0 0 424.04 601.91
  Z"
/>
<path fill="#f26966" d="
  M 490.06 617.17
  Q 490.39 627.09 491.04 637.00
  Q 494.79 694.01 498.86 751.01
  C 499.12 754.68 500.16 759.66 498.08 762.68
  C 494.81 767.41 485.86 765.81 484.17 760.39
  Q 483.96 759.71 483.47 753.05
  C 478.04 678.86 474.40 637.23 473.35 581.75
  C 473.28 577.91 473.03 574.97 476.22 572.42
  C 479.70 569.64 485.69 569.50 487.84 574.24
  Q 503.20 607.98 519.80 641.13
  C 522.80 647.13 525.41 653.66 528.07 660.04
  Q 528.37 660.75 528.56 660.00
  Q 536.51 629.63 546.23 599.86
  Q 548.46 593.04 549.26 591.87
  Q 552.20 587.61 558.58 589.16
  C 561.32 589.82 562.75 592.62 563.17 595.48
  C 565.95 614.34 568.79 633.15 571.14 652.16
  Q 576.88 698.57 587.48 775.15
  Q 588.62 783.39 581.50 785.20
  C 576.00 786.59 572.96 783.87 572.20 778.51
  Q 562.00 705.96 553.06 632.91
  A 0.35 0.34 50.7 0 0 552.39 632.84
  Q 546.97 649.98 542.13 667.62
  C 539.87 675.88 535.13 690.45 523.53 681.49
  Q 519.77 678.57 516.73 671.84
  C 508.40 653.36 499.46 635.24 490.56 617.05
  Q 490.01 615.93 490.06 617.17
  Z"
/>
<path fill="#f26966" d="
  M 672.08 782.31
  C 662.25 804.31 635.16 808.51 619.63 789.60
  C 606.98 774.19 601.64 750.62 597.94 731.02
  C 590.27 690.42 588.41 646.79 587.97 606.15
  C 587.91 600.31 590.15 596.12 596.52 596.81
  Q 603.67 597.59 603.69 605.25
  C 603.81 651.20 605.74 697.55 616.78 742.35
  Q 620.14 755.97 625.10 769.05
  C 627.91 776.46 634.63 785.26 643.01 785.88
  C 655.02 786.79 660.03 772.84 661.82 763.21
  Q 664.94 746.44 665.55 734.74
  Q 668.58 677.40 657.94 621.07
  Q 657.07 616.41 657.69 614.42
  C 659.29 609.32 666.91 607.36 670.70 611.27
  C 672.40 613.02 673.49 618.08 673.87 620.65
  Q 679.86 660.46 681.90 689.25
  Q 683.47 711.33 681.52 737.27
  C 680.23 754.39 678.53 767.87 672.08 782.31
  Z"
/>
<path fill="#fcf1ed" d="
  M 395.31 672.47
  C 405.22 649.15 415.65 625.83 424.04 601.91
  A 0.32 0.32 0.0 0 1 424.66 601.96
  L 438.18 673.46
  A 0.49 0.49 0.0 0 1 437.68 674.04
  L 395.47 672.72
  A 0.18 0.18 0.0 0 1 395.31 672.47
  Z"
/>
<path fill="#f26966" d="
  M 748.65 694.01
  Q 754.95 664.60 757.21 634.51
  Q 757.60 629.30 758.48 627.64
  C 760.97 622.91 769.46 622.17 772.11 627.02
  Q 773.20 629.00 772.89 633.62
  C 769.28 687.98 754.52 740.10 738.56 792.92
  C 736.93 798.33 735.01 802.85 728.02 800.97
  C 721.27 799.14 721.66 794.39 723.46 788.59
  Q 734.24 753.80 743.18 718.50
  C 743.40 717.60 743.40 716.76 742.90 715.92
  Q 716.38 671.01 689.85 626.11
  Q 687.09 621.45 687.01 618.76
  Q 686.86 613.55 692.78 611.72
  C 698.92 609.82 701.15 614.22 704.19 619.39
  Q 726.21 656.79 748.25 694.08
  A 0.22 0.22 0.0 0 0 748.65 694.01
  Z"
/>
<rect fill="#f26966" x="-7.82" y="-68.40" transform="translate(1023.37,687.60) rotate(-4.5)" width="15.64" height="136.80" rx="7.26"/>
<path fill="#f26966" d="
  M 919.34 665.87
  Q 924.41 722.66 929.92 779.41
  Q 930.42 784.60 929.73 786.54
  C 927.65 792.31 918.36 791.32 915.65 786.54
  Q 914.70 784.85 914.22 779.77
  Q 907.43 707.25 900.42 634.76
  C 899.54 625.67 910.98 623.65 915.37 630.15
  Q 938.70 664.69 961.17 703.58
  Q 968.22 715.77 978.20 731.36
  Q 978.66 732.08 978.65 731.23
  C 978.40 697.16 977.05 663.21 975.99 629.19
  C 975.81 623.31 978.98 619.36 985.24 620.58
  Q 991.27 621.77 991.54 628.25
  Q 994.12 689.48 994.55 750.75
  Q 994.59 756.62 994.16 762.48
  C 993.55 770.63 982.93 771.48 979.27 764.92
  Q 967.63 744.02 955.02 723.71
  C 943.07 704.47 932.15 684.73 919.75 665.73
  Q 919.26 664.97 919.34 665.87
  Z"
/>
<path fill="#f26966" d="
  M 879.41 757.49
  C 874.24 777.70 861.86 800.34 837.02 794.59
  C 811.59 788.69 802.74 756.02 797.53 734.54
  Q 786.37 688.54 788.45 641.07
  Q 788.71 634.97 789.95 632.64
  C 793.02 626.84 804.86 627.08 804.31 636.24
  C 802.18 671.70 806.81 704.87 814.73 740.74
  C 818.02 755.61 825.41 776.53 841.96 779.53
  C 849.83 780.96 856.59 773.36 859.61 766.88
  C 866.29 752.51 868.80 736.96 870.42 721.49
  Q 874.75 680.09 868.72 638.97
  Q 867.98 633.91 868.84 631.57
  C 870.55 626.95 878.39 623.62 881.87 627.97
  Q 883.15 629.56 883.77 633.86
  C 889.78 675.21 889.78 716.95 879.41 757.49
  Z"
/>
<path fill="#f26966" d="
  M 420.83 808.44
  C 418.19 801.99 412.37 790.15 418.26 783.79
  C 422.93 778.75 434.65 779.87 441.03 780.81
  C 453.23 782.59 465.21 784.38 477.61 786.73
  Q 537.03 797.97 596.50 808.93
  C 619.68 813.20 643.24 817.21 666.69 819.62
  Q 757.52 828.97 848.31 819.10
  C 877.29 815.95 905.73 812.20 932.77 804.98
  Q 986.22 790.71 1041.00 766.39
  C 1044.38 764.89 1047.84 764.90 1050.20 767.72
  C 1056.15 774.82 1047.97 780.66 1042.47 783.39
  C 997.31 805.82 950.40 819.03 898.50 826.79
  Q 857.87 832.87 816.95 836.60
  C 755.56 842.18 695.30 837.52 632.75 830.20
  Q 603.98 826.83 580.21 821.93
  Q 533.12 812.23 486.34 801.15
  C 477.67 799.10 442.73 790.81 436.36 796.05
  A 1.59 1.59 0.0 0 0 436.44 798.56
  Q 448.94 807.52 463.54 811.65
  Q 479.31 816.11 495.00 820.90
  Q 502.34 823.14 506.39 828.12
  C 509.48 831.94 509.09 836.62 503.73 837.93
  C 491.85 840.83 479.38 834.87 467.95 832.02
  Q 442.92 825.79 417.38 822.10
  C 412.00 821.32 391.40 819.69 389.21 824.59
  Q 389.02 825.01 389.15 825.46
  C 390.33 829.69 396.25 831.67 400.21 832.76
  Q 443.10 844.57 472.02 853.97
  C 475.79 855.19 483.66 860.49 479.13 865.38
  C 475.56 869.24 464.46 868.37 459.74 867.79
  Q 433.41 864.54 392.50 859.96
  Q 376.41 858.16 360.98 860.71
  C 359.46 860.96 357.60 861.82 356.47 862.68
  A 2.07 2.06 51.2 0 0 356.15 865.67
  C 359.93 870.06 368.68 872.99 374.86 873.88
  Q 419.48 880.24 464.30 885.02
  C 467.12 885.32 469.70 885.28 472.03 887.10
  C 475.90 890.15 474.42 895.03 470.00 896.53
  Q 465.75 897.98 461.25 898.08
  Q 422.86 898.90 384.47 899.83
  C 378.37 899.98 364.05 899.82 362.34 905.66
  Q 362.20 906.13 362.45 906.56
  C 366.14 912.99 380.70 915.31 388.00 915.81
  Q 415.70 917.68 449.75 917.14
  C 454.40 917.06 462.92 919.74 464.34 925.02
  C 465.99 931.12 453.53 934.27 449.45 934.93
  C 434.16 937.42 419.26 941.43 404.00 944.16
  C 397.82 945.26 389.26 951.11 401.30 954.38
  C 410.24 956.81 416.40 957.26 428.30 958.40
  Q 496.39 964.91 540.74 967.02
  C 558.48 967.87 580.66 966.63 600.48 965.52
  C 710.65 959.35 824.36 941.54 933.75 914.81
  Q 995.75 899.66 1057.73 884.37
  Q 1064.76 882.64 1071.99 883.34
  C 1080.18 884.13 1080.26 893.39 1075.20 897.70
  Q 1072.58 899.93 1068.24 901.41
  Q 1055.33 905.82 1042.00 908.75
  Q 957.26 927.39 872.50 945.96
  Q 783.30 965.51 692.42 974.25
  Q 691.59 974.33 672.59 976.17
  Q 545.95 988.43 424.75 975.02
  Q 407.93 973.16 389.44 965.72
  Q 382.08 962.75 379.48 959.99
  C 374.19 954.38 375.45 944.76 380.77 939.39
  C 384.38 935.75 391.33 932.97 396.50 930.53
  A 0.34 0.34 0.0 0 0 396.41 929.89
  C 380.88 927.19 365.94 927.87 352.45 918.33
  C 344.68 912.83 339.90 903.42 349.09 896.09
  Q 354.42 891.84 359.53 887.51
  A 1.45 1.45 0.0 0 0 359.23 885.10
  C 350.20 880.63 329.22 872.65 334.71 858.70
  Q 337.19 852.40 345.04 849.53
  Q 360.30 843.96 376.62 842.86
  A 0.63 0.63 0.0 0 0 376.99 841.75
  Q 372.13 837.62 368.33 832.15
  C 356.15 814.64 385.30 809.01 396.00 809.00
  Q 408.23 808.99 420.45 809.01
  Q 421.07 809.01 420.83 808.44
  Z"
/>
<path fill="#f26966" d="
  M 1013.53 979.11
  L 1021.41 977.42
  A 1.13 1.13 0.0 0 1 1022.73 978.19
  L 1023.47 980.60
  A 1.13 1.13 0.0 0 1 1022.63 982.04
  L 1009.44 984.90
  A 1.13 1.13 0.0 0 1 1008.10 984.04
  L 1003.02 960.79
  A 1.13 1.13 0.0 0 1 1003.87 959.44
  L 1016.52 956.58
  A 1.13 1.13 0.0 0 1 1017.87 957.45
  L 1018.43 960.06
  A 1.13 1.13 0.0 0 1 1017.56 961.41
  L 1009.95 963.02
  A 1.13 1.13 0.0 0 0 1009.08 964.37
  L 1009.81 967.72
  A 1.13 1.13 0.0 0 0 1011.16 968.58
  L 1017.90 967.05
  A 1.13 1.13 0.0 0 1 1019.25 967.90
  L 1019.85 970.47
  A 1.13 1.13 0.0 0 1 1018.98 971.84
  L 1012.18 973.25
  A 1.13 1.13 0.0 0 0 1011.31 974.62
  L 1012.19 978.27
  A 1.13 1.13 0.0 0 0 1013.53 979.11
  Z"
/>
<path fill="#f26966" d="
  M 991.33 989.14
  C 976.02 994.67 966.15 974.31 978.70 965.16
  Q 984.54 960.91 993.00 964.47
  Q 995.01 965.32 993.58 966.97
  L 993.01 967.63
  Q 991.53 969.35 989.41 968.52
  C 980.49 965.00 974.42 976.40 980.91 982.61
  Q 986.96 988.39 993.47 981.31
  Q 993.91 980.83 994.49 981.13
  L 997.54 982.70
  A 0.67 0.66 -62.1 0 1 997.82 983.62
  Q 995.54 987.63 991.33 989.14
  Z"
/>
<path fill="#f26966" d="
  M 957.49 991.01
  L 965.22 989.39
  A 1.15 1.15 0.0 0 1 966.58 990.25
  L 967.17 992.72
  A 1.15 1.15 0.0 0 1 966.28 994.11
  L 953.35 996.79
  A 1.15 1.15 0.0 0 1 951.99 995.89
  L 947.15 972.46
  A 1.15 1.15 0.0 0 1 948.06 971.10
  L 960.73 968.58
  A 1.15 1.15 0.0 0 1 962.08 969.48
  L 962.61 972.02
  A 1.15 1.15 0.0 0 1 961.69 973.39
  L 954.13 974.75
  A 1.15 1.15 0.0 0 0 953.20 976.09
  L 953.83 979.50
  A 1.15 1.15 0.0 0 0 955.21 980.42
  L 961.97 978.94
  A 1.15 1.15 0.0 0 1 963.34 979.84
  L 963.84 982.32
  A 1.15 1.15 0.0 0 1 962.96 983.67
  L 956.17 985.18
  A 1.15 1.15 0.0 0 0 955.30 986.56
  L 956.13 990.15
  A 1.15 1.15 0.0 0 0 957.49 991.01
  Z"
/>
<path fill="#f26966" d="
  M 927.17 992.18
  A 0.76 0.76 0.0 0 0 926.49 993.09
  L 927.92 1000.29
  Q 928.27 1002.03 926.50 1002.27
  L 924.67 1002.51
  Q 923.12 1002.72 922.82 1001.19
  L 918.16 977.80
  A 0.63 0.62 -12.4 0 1 918.63 977.07
  Q 923.30 975.93 927.73 975.29
  C 936.73 973.98 941.50 982.61 935.60 989.66
  Q 935.29 990.04 935.62 990.39
  L 942.21 997.29
  Q 943.38 998.51 941.75 998.99
  L 939.55 999.64
  Q 937.83 1000.14 936.66 998.79
  L 931.10 992.39
  Q 930.68 991.91 930.05 991.96
  L 927.17 992.18
  Z
  M 924.21 981.70
  L 925.22 987.21
  A 1.00 1.00 0.0 0 0 926.39 988.01
  L 929.54 987.43
  A 4.16 3.51 -10.4 0 0 932.99 983.23
  L 932.89 982.66
  A 4.16 3.51 -10.4 0 0 928.16 979.96
  L 925.02 980.54
  A 1.00 1.00 0.0 0 0 924.21 981.70
  Z"
/>
<path fill="#fcf1ed" d="
  M 924.21 981.70
  A 1.00 1.00 0.0 0 1 925.02 980.54
  L 928.16 979.96
  A 4.16 3.51 -10.4 0 1 932.89 982.66
  L 932.99 983.23
  A 4.16 3.51 -10.4 0 1 929.54 987.43
  L 926.39 988.01
  A 1.00 1.00 0.0 0 1 925.22 987.21
  L 924.21 981.70
  Z"
/>
<path fill="#f26966" d="
  M 892.96 994.31
  C 893.75 1002.09 900.80 1005.03 907.34 999.65
  Q 909.26 998.08 911.21 999.61
  L 911.59 999.90
  A 1.73 1.73 0.0 0 1 911.77 1002.46
  Q 905.20 1009.34 897.12 1006.80
  C 879.73 1001.35 888.49 973.42 907.50 981.87
  Q 909.93 982.95 908.09 984.87
  L 907.76 985.21
  Q 906.18 986.86 904.10 985.93
  C 898.31 983.34 892.37 988.41 892.96 994.31
  Z"
/>
<path fill="#f26966" d="
  M 822.45 1006.40
  L 829.34 1005.14
  A 1.08 1.08 0.0 0 1 830.59 1006.00
  L 831.09 1008.59
  A 1.08 1.08 0.0 0 1 830.24 1009.85
  L 823.35 1011.21
  A 1.08 1.08 0.0 0 0 822.50 1012.49
  L 823.28 1016.16
  A 1.08 1.08 0.0 0 0 824.51 1017.01
  L 832.54 1015.64
  A 1.08 1.08 0.0 0 1 833.77 1016.43
  L 834.43 1019.02
  A 1.08 1.08 0.0 0 1 833.58 1020.35
  L 820.27 1022.76
  A 1.08 1.08 0.0 0 1 819.01 1021.90
  L 814.55 998.26
  A 1.08 1.08 0.0 0 1 815.42 997.00
  L 828.17 994.71
  A 1.08 1.08 0.0 0 1 829.40 995.51
  L 830.04 998.06
  A 1.08 1.08 0.0 0 1 829.19 999.39
  L 821.42 1000.81
  A 1.08 1.08 0.0 0 0 820.55 1002.07
  L 821.19 1005.53
  A 1.08 1.08 0.0 0 0 822.45 1006.40
  Z"
/>
<circle fill="#f26966" cx="861.14" cy="1001.81" r="5.07"/>
<path fill="#f26966" d="
  M 799.67 1006.11
  L 803.23 1024.87
  A 1.12 1.12 0.0 0 1 802.28 1026.19
  L 799.31 1026.60
  A 1.12 1.12 0.0 0 1 798.05 1025.69
  L 794.72 1007.03
  A 1.12 1.12 0.0 0 0 793.42 1006.13
  L 789.41 1006.84
  A 1.12 1.12 0.0 0 1 788.10 1005.92
  L 787.70 1003.49
  A 1.12 1.12 0.0 0 1 788.59 1002.20
  L 803.80 999.29
  A 1.12 1.12 0.0 0 1 805.12 1000.24
  L 805.48 1002.78
  A 1.12 1.12 0.0 0 1 804.58 1004.04
  L 800.56 1004.80
  A 1.12 1.12 0.0 0 0 799.67 1006.11
  Z"
/>
<path fill="#f26966" d="
  M 763.62 1016.27
  L 765.63 1030.51
  Q 765.86 1032.13 764.25 1032.36
  L 762.33 1032.65
  Q 760.79 1032.88 760.56 1031.33
  L 757.20 1008.33
  A 1.37 1.37 0.0 0 1 758.21 1006.81
  Q 761.76 1005.87 763.54 1007.97
  Q 769.10 1014.53 774.83 1020.93
  Q 775.34 1021.50 775.23 1020.74
  L 773.23 1006.18
  Q 773.01 1004.64 774.55 1004.41
  L 776.49 1004.13
  A 1.61 1.61 0.0 0 1 778.32 1005.49
  L 781.67 1028.73
  Q 781.73 1029.20 781.34 1029.46
  C 778.66 1031.24 776.73 1030.24 774.81 1027.91
  Q 769.70 1021.73 764.03 1016.07
  Q 763.52 1015.57 763.62 1016.27
  Z"
/>
<path fill="#f26966" d="
  M 739.57 1020.02
  L 746.54 1019.17
  A 1.06 1.06 0.0 0 1 747.71 1020.06
  L 748.14 1022.66
  A 1.06 1.06 0.0 0 1 747.23 1023.88
  L 740.30 1024.83
  A 1.06 1.06 0.0 0 0 739.39 1025.98
  L 739.74 1029.73
  A 1.06 1.06 0.0 0 0 740.91 1030.68
  L 749.33 1029.77
  A 1.06 1.06 0.0 0 1 750.50 1030.72
  L 750.76 1033.44
  A 1.06 1.06 0.0 0 1 749.83 1034.59
  L 736.46 1036.20
  A 1.06 1.06 0.0 0 1 735.28 1035.29
  L 732.26 1011.51
  A 1.06 1.06 0.0 0 1 733.17 1010.33
  L 746.10 1008.56
  A 1.06 1.06 0.0 0 1 747.29 1009.50
  L 747.58 1012.28
  A 1.06 1.06 0.0 0 1 746.65 1013.44
  L 738.84 1014.34
  A 1.06 1.06 0.0 0 0 737.91 1015.53
  L 738.39 1019.11
  A 1.06 1.06 0.0 0 0 739.57 1020.02
  Z"
/>
<path fill="#f26966" d="
  M 438.78 1028.57
  Q 442.69 1033.57 449.49 1030.42
  Q 450.05 1030.16 450.47 1030.62
  L 452.62 1032.95
  Q 453.14 1033.51 452.59 1034.04
  C 447.07 1039.31 436.97 1035.98 433.51 1030.05
  C 429.06 1022.42 433.45 1010.92 442.49 1009.67
  Q 450.61 1008.55 456.01 1014.70
  A 1.72 1.71 53.6 0 1 455.62 1017.29
  Q 452.33 1019.30 450.41 1016.27
  Q 450.16 1015.88 449.75 1015.68
  Q 441.23 1011.57 437.53 1020.00
  C 436.24 1022.94 436.81 1026.03 438.78 1028.57
  Z"
/>
<rect fill="#f26966" x="-2.59" y="-13.09" transform="translate(720.40,1024.81) rotate(-6.4)" width="5.18" height="26.18" rx="1.37"/>
<path fill="#f26966" d="
  M 695.36 1024.03
  C 698.83 1025.46 704.41 1025.09 707.11 1027.38
  C 709.81 1029.67 709.94 1033.78 708.27 1036.59
  C 704.84 1042.37 693.04 1042.53 689.74 1036.45
  Q 689.40 1035.82 690.02 1035.47
  L 692.94 1033.82
  Q 693.59 1033.46 694.10 1034.00
  Q 697.68 1037.85 702.53 1035.57
  C 705.11 1034.35 704.73 1030.84 701.76 1030.37
  C 698.57 1029.86 694.67 1029.81 692.12 1027.99
  C 686.65 1024.09 688.71 1016.75 694.56 1014.63
  C 697.51 1013.56 704.75 1013.59 706.20 1017.62
  Q 706.92 1019.62 704.87 1020.19
  C 701.33 1021.16 701.69 1018.99 699.37 1018.43
  C 696.44 1017.72 692.99 1020.12 694.59 1023.32
  Q 694.84 1023.82 695.36 1024.03
  Z"
/>
<path fill="#f26966" d="
  M 474.1248 1041.7596
  A 13.63 13.36 98.8 0 1 463.0073 1026.2461
  A 13.63 13.36 98.8 0 1 478.2952 1014.8204
  A 13.63 13.36 98.8 0 1 489.4127 1030.3339
  A 13.63 13.36 98.8 0 1 474.1248 1041.7596
  Z
  M 475.3008 1036.8942
  A 8.65 8.13 95.9 0 0 484.2769 1029.1257
  A 8.65 8.13 95.9 0 0 477.0792 1019.6858
  A 8.65 8.13 95.9 0 0 468.1031 1027.4543
  A 8.65 8.13 95.9 0 0 475.3008 1036.8942
  Z"
/>
<path fill="#f26966" d="
  M 504.29 1028.02
  L 503.23 1042.76
  Q 503.12 1044.38 501.49 1044.28
  L 499.44 1044.16
  A 1.54 1.53 4.0 0 1 498.00 1042.51
  L 499.90 1018.95
  Q 499.95 1018.38 500.49 1018.21
  C 503.13 1017.34 504.64 1018.43 505.97 1020.76
  Q 510.11 1028.06 514.21 1035.37
  Q 514.62 1036.11 514.69 1035.27
  L 515.83 1021.08
  Q 515.99 1019.10 517.97 1019.28
  L 519.25 1019.39
  Q 521.18 1019.57 521.03 1021.50
  L 519.24 1044.49
  A 0.96 0.95 84.7 0 1 518.56 1045.32
  Q 514.50 1046.51 512.63 1042.79
  Q 508.84 1035.25 504.69 1027.93
  Q 504.34 1027.32 504.29 1028.02
  Z"
/>
<ellipse fill="#fcf1ed" cx="0.00" cy="0.00" transform="translate(476.19,1028.29) rotate(95.9)" rx="8.65" ry="8.13"/>
<path fill="#f26966" d="
  M 626.44 1040.76
  L 617.66 1041.21
  A 1.22 1.22 0.0 0 0 616.54 1042.14
  L 615.69 1045.56
  A 1.22 1.22 0.0 0 1 614.59 1046.48
  L 611.52 1046.68
  A 1.22 1.22 0.0 0 1 610.27 1045.11
  L 617.71 1020.99
  A 1.22 1.22 0.0 0 1 618.81 1020.13
  L 623.40 1019.90
  A 1.22 1.22 0.0 0 1 624.59 1020.66
  L 634.23 1044.01
  A 1.22 1.22 0.0 0 1 633.15 1045.70
  L 630.22 1045.83
  A 1.22 1.22 0.0 0 1 629.03 1045.06
  L 627.64 1041.54
  A 1.22 1.22 0.0 0 0 626.44 1040.76
  Z
  M 625.10 1036.28
  A 0.35 0.35 0.0 0 0 625.42 1035.80
  L 621.81 1026.37
  A 0.35 0.35 0.0 0 0 621.15 1026.40
  L 618.30 1035.95
  A 0.35 0.35 0.0 0 0 618.64 1036.40
  L 625.10 1036.28
  Z"
/>
<path fill="#f26966" d="
  M 535.46 1036.81
  L 535.34 1040.54
  A 1.13 1.13 0.0 0 0 536.43 1041.71
  L 544.41 1042.04
  A 1.13 1.13 0.0 0 1 545.49 1043.19
  L 545.45 1045.73
  A 1.13 1.13 0.0 0 1 544.27 1046.84
  L 531.00 1046.24
  A 1.13 1.13 0.0 0 1 529.93 1045.06
  L 530.91 1021.31
  A 1.13 1.13 0.0 0 1 532.07 1020.23
  L 544.93 1020.57
  A 1.13 1.13 0.0 0 1 546.03 1021.75
  L 545.91 1024.49
  A 1.13 1.13 0.0 0 1 544.72 1025.56
  L 537.00 1025.12
  A 1.13 1.13 0.0 0 0 535.81 1026.23
  L 535.75 1029.78
  A 1.13 1.13 0.0 0 0 536.86 1030.93
  L 543.73 1031.07
  A 1.13 1.13 0.0 0 1 544.83 1032.32
  L 544.54 1034.90
  A 1.13 1.13 0.0 0 1 543.38 1035.90
  L 536.62 1035.71
  A 1.13 1.13 0.0 0 0 535.46 1036.81
  Z"
/>
<path fill="#f26966" d="
  M 561.82 1039.97
  Q 566.66 1045.42 573.75 1040.30
  Q 574.25 1039.94 574.71 1040.34
  L 577.15 1042.50
  Q 577.71 1042.99 577.21 1043.55
  C 570.56 1051.01 558.57 1047.84 555.10 1038.95
  Q 553.14 1033.91 555.31 1028.81
  C 558.99 1020.21 570.24 1017.43 576.88 1024.19
  Q 578.14 1025.47 576.67 1026.49
  L 575.48 1027.32
  A 2.40 2.39 46.5 0 1 572.65 1027.24
  C 564.19 1020.66 555.20 1032.51 561.82 1039.97
  Z"
/>
<path fill="#f26966" d="
  M 591.36 1025.95
  L 587.32 1025.93
  A 1.09 1.09 0.0 0 1 586.24 1024.90
  L 586.08 1022.24
  A 1.09 1.09 0.0 0 1 587.14 1021.08
  L 602.59 1020.72
  A 1.09 1.09 0.0 0 1 603.71 1021.78
  L 603.77 1024.56
  A 1.09 1.09 0.0 0 1 602.67 1025.68
  L 598.72 1025.62
  A 1.09 1.09 0.0 0 0 597.62 1026.73
  L 597.96 1046.07
  A 1.09 1.09 0.0 0 1 596.88 1047.18
  L 593.94 1047.20
  A 1.09 1.09 0.0 0 1 592.84 1046.13
  L 592.44 1027.02
  A 1.09 1.09 0.0 0 0 591.36 1025.95
  Z"
/>
<circle fill="#f26966" cx="659.65" cy="1029.60" r="5.03"/>
<path fill="#fcf1ed" d="
  M 625.10 1036.28
  L 618.64 1036.40
  A 0.35 0.35 0.0 0 1 618.30 1035.95
  L 621.15 1026.40
  A 0.35 0.35 0.0 0 1 621.81 1026.37
  L 625.42 1035.80
  A 0.35 0.35 0.0 0 1 625.10 1036.28
  Z"
/>
</svg>
